<?xml version="1.0" encoding="utf-8"?>
<!-- Generator: Adobe Illustrator 16.0.3, SVG Export Plug-In . SVG Version: 6.00 Build 0)  -->
<!DOCTYPE svg PUBLIC "-//W3C//DTD SVG 1.1//EN" "http://www.w3.org/Graphics/SVG/1.1/DTD/svg11.dtd">
<svg version="1.1" id="Capa_1" xmlns="http://www.w3.org/2000/svg" xmlns:xlink="http://www.w3.org/1999/xlink" x="0px" y="0px"
	 width="113.069px" height="81.071px" viewBox="0 0 113.069 81.071" enable-background="new 0 0 113.069 81.071"
	 xml:space="preserve">
<g>
	<path fill-rule="evenodd" clip-rule="evenodd" fill="#069C5D" d="M113,43c-3.035,3.937-6.283,7.434-12.008,5.854
		c2.364-3.89,6.66-5.334,10.043-7.936c0.654,0.027,1.31,0.055,1.965,0.082C113,41.667,113,42.333,113,43z"/>
	<path fill-rule="evenodd" clip-rule="evenodd" fill="#099C5E" d="M13.978,48.756C7.871,50.853,4.623,46.505,1,43
		c0-0.333,0-0.667,0-1c0.949-0.458,1.897-0.915,2.846-1.373C6.468,44.278,11.255,45.23,13.978,48.756z"/>
	<path fill-rule="evenodd" clip-rule="evenodd" fill="#099D5E" d="M23,81c-0.27-0.991-1.588-1.763-0.63-3.011
		c4.476-0.867,8.952-0.985,13.427,0.005C35.247,79.899,33.131,79.828,32,81C29,81,26,81,23,81z"/>
	<path fill-rule="evenodd" clip-rule="evenodd" fill="#FEC718" d="M53,1c0.127,0.3,0.302,0.589,0.374,0.901
		c0.496,2.172,1.534,4.374,0.01,6.495c-0.175,0.244-1.555,0.104-1.679-0.171C50.669,5.921,49.242,3.592,51,1C51.667,1,52.333,1,53,1
		z"/>
	<path fill-rule="evenodd" clip-rule="evenodd" fill="#FEC81A" d="M64,1c-0.002,1.807,0.029,3.614-0.015,5.42
		c-0.032,1.303-0.657,2.368-2.042,2.243c-1.401-0.127-1.859-1.309-1.563-2.579C60.785,4.354,60.548,2.4,62,1C62.666,1,63.334,1,64,1
		z"/>
	<path fill-rule="evenodd" clip-rule="evenodd" fill="#12A164" d="M91.2,80.079C91.039,80.365,90.972,80.673,91,81
		c-3.334,0-6.666,0-10,0c-0.002-0.331-0.004-0.661-0.007-0.992c0.222-0.208,0.444-0.417,0.664-0.629
		C84.92,78.489,88.17,77.798,91.2,80.079z"/>
	<path fill-rule="evenodd" clip-rule="evenodd" fill="#FEC200" d="M68.91,61.329c-8.209-6.289-16.216-5.644-24.138,0.604
		c-0.835,0.659-1.869,1.503-3.645,0.732c0.708-4.53,1.214-9.264,2.265-13.874c0.531-2.328-0.005-3.729-1.644-5.202
		c-2.592-2.33-5.071-4.789-7.538-7.253c-0.886-0.886-2.558-1.661-1.922-3.127c0.587-1.354,2.346-0.879,3.616-1.096
		c1.308-0.224,2.637-0.628,3.935-0.555c7.461,0.423,11.466-3.576,13.561-10.24c0.393-1.249,1.061-2.437,1.753-3.559
		c0.569-0.924,0.567-2.547,2.031-2.519c1.397,0.026,1.536,1.518,2.05,2.508c0.076,0.147,0.196,0.28,0.24,0.435
		c2.631,9.325,8.627,14.227,18.476,14.075c0.269,1.453-0.749,2.057-1.754,2.673c-3.354,1.854-5.946,4.492-7.931,7.744
		c-1.022,2.053-0.02,4.308-0.63,6.401c-1.13,2.033-1.13,2.033,0.681,2.186C69.51,54.569,71.218,57.834,68.91,61.329z"/>
	<path fill-rule="evenodd" clip-rule="evenodd" fill="#01BA6E" d="M35.797,77.994c-4.476,1.168-8.952,1.396-13.427-0.005
		c1.475-3.975,4.265-6.514,8.402-7.556c-4.45-7.095-5.189-7.441-9.814-4.669c-4.739,0.273-8.851-1.006-11.938-4.821
		c2.879-3.639,6.592-5.232,11.667-4.844c-3.902-1.145,1.703-10.017-6.71-7.344c-3.839-2.133-8.99-2.632-10.13-8.129
		c4.139-2.878,8.236-2.071,12.281,0.54c0.553-4.869,0.697-9.145-5.149-10.275C6.95,28.76,5.975,24.742,4.784,20.857
		c5.339-1.988,9.219,0.61,12.775,4.411c1.017-3.204,2.826-5.959,1.298-9.187c-0.048-3.454,1.07-6.444,3.645-8.792
		c1.324-1.206,2.67-2.587,4.735-1.404c3.045,4.419,2.453,8.904-1.426,11.983c-3.848,3.055-4.853,7.031-5.524,11.187
		c-3.347,20.706,7.151,38.633,26.781,46.251c1.355,0.526,4.005,0.563,3.033,2.908c-0.832,2.006-2.91,0.69-4.385,0.226
		c-1.573-0.496-3.322-0.941-4.539-1.956C38.427,74.189,37.173,76.039,35.797,77.994z"/>
	<path fill-rule="evenodd" clip-rule="evenodd" fill="#01B96E" d="M111.035,40.918c-2.113,4.208-6.53,5.498-10.042,7.936
		c-4.31-1.493-4.31-1.493-6.931,7.515c3.872-0.279,7.484,0.194,10.066,3.451c-1.452,5.029-4.865,6.586-11.619,5.3
		c-1.965-1.25-3.762-2.438-5.41,0.632c-0.828,1.542-2.41,2.679-4.009,4.379c4.239,1.305,7.569,3.489,8.77,7.85
		c-2.776,2.183-6.048,1.332-9.151,1.491c-1.867-0.271-3.219-1.526-4.732-2.475c-1.03-1.419-1.99-2.253-3.934-1.008
		c-1.932,1.237-4.171,2.053-6.359,2.81c-1.15,0.396-2.867,1.061-3.498-0.578c-0.67-1.74,1.031-2.081,2.252-2.606
		c2.591-1.114,5.266-2.098,7.704-3.488c16.218-9.252,24.127-28.201,19.313-46.216c-0.757-2.831-1.634-5.42-4.532-7.323
		c-4.485-2.945-4.911-7.261-2.187-12.712c4.778-0.964,5.977,2.862,7.748,5.852c0.78,1.317,0.403,2.896,0.644,4.343
		c-1.178,3.149,0.826,5.722,1.553,9.144c3.893-3.548,7.752-6.625,13.114-4.193c-1.716,4.671-3.228,9.504-8.827,11.08
		c-1.543,0.249-3.32,0.03-2.909,2.662c0.298,1.909,0.058,3.902,0.058,6.198C102.564,38.796,106.854,37.542,111.035,40.918z"/>
	<path fill-rule="evenodd" clip-rule="evenodd" fill="#FEBA03" d="M68.91,61.329c0.03-3.565-0.648-7.001-1.903-10.329
		c-0.569-0.659-0.587-1.321-0.012-1.987c-0.074-2.337-1.21-4.675,0.007-7.011c3.423-2.196,5.613-5.78,9.012-8.003
		c0.646-0.58,1.291-1.16,1.937-1.739c1.639-0.106,3.3-0.319,5.283,1.508c-3.237,3.037-6.291,6.202-9.669,8.972
		c-2.537,2.081-3.03,4.459-2.42,7.409c0.6,2.903,1.266,5.804,1.619,8.74c0.156,1.301,1.3,3.125-0.465,3.974
		C71.02,63.478,69.961,62.063,68.91,61.329z"/>
	<path fill-rule="evenodd" clip-rule="evenodd" fill="#109F62" d="M27.238,5.886c-5.439,1.224-6.31,6.203-8.38,10.196
		c-1.171-5.068,1.099-9.91,5.364-11.792C26.094,3.464,27.022,3.858,27.238,5.886z"/>
	<path fill-rule="evenodd" clip-rule="evenodd" fill="#109F63" d="M95.127,16.068c-2.057-4.008-2.945-8.977-8.392-10.194
		c0.234-2.009,1.153-2.419,3.027-1.588C94.03,6.177,96.301,11.009,95.127,16.068z"/>
	<path fill-rule="evenodd" clip-rule="evenodd" fill="#089D5E" d="M100.967,32.099c4.648-2.334,5.321-7.835,8.828-11.08
		C110.502,27.506,107.321,31.497,100.967,32.099z"/>
	<path fill-rule="evenodd" clip-rule="evenodd" fill="#0B9E5F" d="M4.784,20.857c2.912,2.822,3.486,7.087,6.195,10.034
		C6.04,30.199,3.63,26.296,4.784,20.857z"/>
	<path fill-rule="evenodd" clip-rule="evenodd" fill="#FEC511" d="M46.231,11.265c-0.149,1.125-0.768,1.964-1.601,1.699
		c-2.283-0.725-3.11-2.83-3.686-4.882c-0.288-1.027,0.448-2.188,1.667-1.691C44.775,7.271,45.399,9.482,46.231,11.265z"/>
	<path fill-rule="evenodd" clip-rule="evenodd" fill="#FEC50E" d="M73.91,8.33c-1.169,1.427-1.363,4.128-4.031,4.634
		c-0.805,0.152-1.66-0.879-1.381-1.601c0.803-2.075,1.459-4.474,4.025-5.072C73.162,6.143,73.989,6.943,73.91,8.33z"/>
	<path fill-rule="evenodd" clip-rule="evenodd" fill="#039A5D" d="M77.977,76.996c1.6,0.151,2.988,0.733,4.045,1.988
		c-0.15,0.374-0.418,0.627-0.801,0.756l-0.228,0.268C79.539,79.452,78.383,78.601,77.977,76.996z"/>
	<path fill-rule="evenodd" clip-rule="evenodd" fill="#008B61" d="M9.02,60.943c3.823,1.993,7.781,3.652,11.938,4.821
		c-0.235,0.268-0.526,0.356-0.871,0.268c-1.788,0.761-3.591,0.578-5.4,0.095C10.365,65.036,8.591,63.413,9.02,60.943z"/>
	<path fill-rule="evenodd" clip-rule="evenodd" fill="#17A367" d="M14.686,66.127c1.8-0.032,3.6-0.063,5.4-0.095
		C18.307,67.266,16.507,67.306,14.686,66.127z"/>
	<path fill-rule="evenodd" clip-rule="evenodd" fill="#13A165" d="M92.51,65.119c4.486-0.42,8.949-0.896,11.619-5.3
		c1.527,0.938,2.782,1.734,0.844,3.686C101.646,66.855,96.998,67.582,92.51,65.119z"/>
	<path fill-rule="evenodd" clip-rule="evenodd" fill="#009858" d="M81.221,79.74c0.267-0.252,0.533-0.504,0.801-0.756
		c3.353,0.377,6.584-0.436,9.839-1.005c0.378,0.888,0.606,1.729-0.66,2.1C87.873,79.966,84.547,79.854,81.221,79.74z"/>
	<path fill-rule="evenodd" clip-rule="evenodd" fill="#FEC30F" d="M76.014,33.999c-2.707,3.001-4.814,6.68-9.012,8.003
		C69.697,38.985,71.809,35.313,76.014,33.999z"/>
	<path fill-rule="evenodd" clip-rule="evenodd" fill="#FEC412" d="M66.995,49.013c0.004,0.663,0.007,1.325,0.011,1.987
		c-0.049,0.635-0.1,1.27-0.199,2.55C65.748,51.524,65.637,50.216,66.995,49.013z"/>
</g>
</svg>
