<?xml version="1.0" encoding="utf-8"?>
<!-- Generator: Adobe Illustrator 16.0.3, SVG Export Plug-In . SVG Version: 6.00 Build 0)  -->
<!DOCTYPE svg PUBLIC "-//W3C//DTD SVG 1.1//EN" "http://www.w3.org/Graphics/SVG/1.1/DTD/svg11.dtd">
<svg version="1.1" id="Capa_1" xmlns="http://www.w3.org/2000/svg" xmlns:xlink="http://www.w3.org/1999/xlink" x="0px" y="0px"
	 width="70.6px" height="71.246px" viewBox="0 0 70.6 71.246" enable-background="new 0 0 70.6 71.246" xml:space="preserve">
<g>
	<path fill-rule="evenodd" clip-rule="evenodd" fill="#010101" d="M63.935,37.66c-2.151,0.149-3.405-0.494-4.719-1.905
		c-0.989-1.062-1.871-2.318-3.588-2.488c-1.031-0.102-2.599,0.735-2.974-0.816c-0.195-0.807,0.325-2.117,0.97-2.724
		c1.182-1.111,2.925-0.863,4.215-0.301c1.125,0.489,1.801,1.918,2.873,2.638c2.866,1.924,5.76,1.728,8.102-0.817
		c2.343-2.545,2.367-5.544,0.153-8.151c-2.21-2.603-5.176-3.136-8.032-1.133c-2.187,1.534-4.666,5.211-6.829,2.239
		c-3.067-4.215,3.123-2.682,4.313-4.758c1.052-1.834,2.594-3.257,5.621-2.879c3.736,0.467,6.187-2.064,6.376-6.043
		c0.166-3.477-2.893-6.621-6.271-6.292c-3.818,0.373-6.407,2.588-5.871,6.563c0.444,3.291-1.47,4.892-3.585,5.745
		c-3.062,1.235-3.158-2.151-4.112-3.793C44.642,2.526,32.686-2.312,21.396,1.069C10.692,4.273,2.779,14.896,3.83,25.993
		c0.424,4.484-0.218,8.105-2.806,11.497c-1.39,1.82-1.555,3.176,0.71,4.257c5.154,2.46,7.099,6.505,6.036,12.083
		c-0.663,3.476,0.773,4.734,4.292,4.397c1.813-0.174,4.502-1.199,4.395,2.71c-0.088,3.23-1.661,7.795,0.727,9.41
		c2.42,1.638,6.709,0.521,10.179,0.593c1.331,0.027,2.663,0.005,3.995,0.005c2.995,0,6.021-0.271,8.979,0.065
		c4.011,0.455,5.566-0.63,5.215-5c-0.661-8.207,0.759-16.225,3.494-24.006c0.816-2.322,1.049-5.25,4.633-4.473
		c3.027,0.656,4.877,2.209,4.56,5.875c-0.344,3.975,2.043,6.208,5.941,6.492c3.465,0.253,6.432-2.776,6.234-6.29
		C70.189,39.618,67.827,37.391,63.935,37.66z M63.926,25.072c1.336-0.248,2.063,0.664,2.465,1.669
		c0.013,1.354-0.673,2.08-1.69,2.282c-1.33,0.263-2.237-0.415-2.377-1.797C62.209,26.092,62.895,25.263,63.926,25.072z
		 M62.234,10.135c0.127-1.159,1.019-1.753,1.97-1.791c1.271-0.049,2.224,0.835,2.237,2.102c0.014,1.345-1.044,1.907-2.277,2.028
		C62.846,12.218,62.082,11.533,62.234,10.135z M44.865,41.406c-2.586,7.04-3.865,14.47-3.54,22.036
		c0.108,2.538-0.504,3.597-3.253,3.484c-4.822-0.197-9.66-0.153-14.485-0.012c-2.277,0.066-3.458-0.461-3.161-2.998
		c0.172-1.479-0.161-3.023,0.069-4.486c0.667-4.229-0.656-6.277-5.237-5.392c-2.539,0.492-3.737-0.572-3.312-3.26
		c0.707-4.459-0.19-8.185-4.752-10.233c-2.454-1.102-1.875-2.732-0.582-4.348c2.014-2.514,2.147-5.115,1.529-8.308
		C6.248,18.11,12.792,8.078,22.542,5.114c10.154-3.087,20.385,1.528,24.945,11.685c-7.125,0-13.784-0.081-20.441,0.023
		c-6.327,0.099-10.599,4.224-10.681,10.075c-0.083,5.866,4.069,10.251,10.318,10.516c4.988,0.212,9.992,0.138,14.986,0.035
		C44.618,37.388,46.373,37.302,44.865,41.406z M32.972,26.887c0.114,3.429-2.707,6.321-6.214,6.371
		c-3.503,0.049-6.448-2.762-6.272-6.238c0.184-3.652,2.263-5.783,5.901-6.101C29.82,20.618,32.858,23.48,32.972,26.887z
		 M48.819,30.665c-0.159,1.892-1.291,2.802-3.364,2.704c-3.131-0.148-6.273-0.039-9.848-0.039c0.341-3.204,1.691-4.553,4.604-4.259
		c1.807,0.183,3.681-0.178,5.458,0.112C46.757,29.359,49.059,27.817,48.819,30.665z M46.702,24.956
		c-2.14,0.087-4.301-0.136-6.425,0.064c-2.843,0.269-4.305-0.891-4.637-4.147c3.963,0,7.582,0.062,11.197-0.025
		c1.84-0.045,2.734,0.562,2.699,2.506C49.496,25.607,47.85,24.909,46.702,24.956z M64.219,45.768
		c-1.042-0.018-1.779-0.745-1.896-1.872c-0.121-1.177,0.551-1.975,1.588-2.126c1.256-0.184,2.191,0.469,2.496,1.848
		C66.24,44.887,65.537,45.79,64.219,45.768z"/>
	<path fill-rule="evenodd" clip-rule="evenodd" fill="#090909" d="M26.806,24.945c-1.609,0.029-2.362,0.491-2.332,2.251
		c0.026,1.505,0.607,2.061,2.029,1.939c1.177,0.036,2.324,0.077,2.304-1.658C28.79,26.069,28.746,24.909,26.806,24.945z"/>
</g>
</svg>
