<?xml version="1.0" encoding="utf-8"?>
<!-- Generator: Adobe Illustrator 16.0.3, SVG Export Plug-In . SVG Version: 6.00 Build 0)  -->
<!DOCTYPE svg PUBLIC "-//W3C//DTD SVG 1.1//EN" "http://www.w3.org/Graphics/SVG/1.1/DTD/svg11.dtd">
<svg version="1.1" id="Capa_1" xmlns="http://www.w3.org/2000/svg" xmlns:xlink="http://www.w3.org/1999/xlink" x="0px" y="0px"
	 width="258.057px" height="258.058px" opacity="0.15" viewBox="0 0 258.057 258.058" enable-background="new 0 0 258.057 258.058"
	 xml:space="preserve">
<path fill-rule="evenodd" clip-rule="evenodd" d="M128.855,0C57.736,0.05-0.016,57.903,0,129.08
	c0.015,70.945,57.797,128.961,128.457,128.979c72.097,0.018,129.692-57.678,129.601-129.827C257.968,57.633,199.848-0.049,128.855,0
	z M128.042,252.062C60.491,251.873,5.739,196.068,5.999,127.672C6.251,60.844,62.123,5.699,129.274,5.999
	C197.189,6.302,252.33,61.61,252.06,129.158C251.786,197.541,196.578,252.253,128.042,252.062z" fill="#115D74"/>
<path fill-rule="evenodd" clip-rule="evenodd" d="M129.988,8.343C65.955,7.522,11.635,56.928,8.307,123.283
	c-3.331,66.421,47.246,122.974,114.665,126.498c67.161,3.51,125.026-49.41,126.586-117.4
	C251.905,69.384,202.082,9.267,129.988,8.343z M56.829,212.287c7.875-3.559,15.851-6.805,23.5-10.691
	c17.139-8.711,32.797-19.625,46.637-33.012c2.143-2.072,3.175-1.662,5.055,0.205c19.539,19.412,42.501,33.375,68.423,42.566
	C166.091,245.425,99.442,250.835,56.829,212.287z M62.956,201.974c22.079-29.564,44.158-59.129,66.558-89.124
	c22.314,29.917,44.423,59.555,66.532,89.194c0.369,1.037-0.073,1.264-1.004,1.002c-14.408-14.025-28.831-28.035-43.22-42.084
	c-6.545-6.389-13.136-12.738-19.467-19.334c-2.225-2.318-3.358-2.266-5.644-0.008c-20.815,20.561-41.775,40.973-62.692,61.43
	C63.083,203.267,62.654,202.982,62.956,201.974z M203.225,209.189c-5.146-13.752-10.612-27.268-16.847-40.465
	c-14.545-30.793-32.208-59.667-53.427-86.306c-2.908-3.651-2.555-5.434,1.193-7.688c3.123-1.879,5.777-4.529,8.88-6.45
	c3.117-1.929,3.547-3.947,2.145-7.322c-2.643-6.353-2.421-6.445-8.051-2.895c-0.072,0.146-0.106,0.339-0.222,0.431
	c-7.452,5.931-7.453,5.93-14.937-0.443c-1.816-1.107-3.631-2.212-5.461-3.328c-5.007,10.223-4.989,10.199,3.637,16.646
	c2.92,2.183,7.546,4.199,8.03,6.895c0.432,2.406-3.729,5.678-5.94,8.509C93.532,123.504,71.611,163.927,56.16,207.88
	c-0.325,0.926-0.313,2.01-1.318,2.582C25.827,186.148,9.202,140.412,23.335,96.136c14.66-45.928,57.425-77.368,105.508-77.039
	c-9.684,7.547-18.604,14.499-27.968,21.796c7.479,5.494,14.795,10.867,22.111,16.24c4.37,4.371,8.725,4.048,13.069-0.042
	c6.304-4.615,12.521-9.356,18.955-13.784c2.629-1.808,3.04-2.681,0.193-4.781c-8.161-6.022-16.09-12.358-24.235-18.667
	c30.297-1.99,75.179,18.054,96.129,60.671C249.413,125.924,236.803,179.724,203.225,209.189z" fill="#115D74"/>
</svg>
