<?xml version="1.0" encoding="utf-8"?>
<!-- Generator: Adobe Illustrator 16.0.3, SVG Export Plug-In . SVG Version: 6.00 Build 0)  -->
<!DOCTYPE svg PUBLIC "-//W3C//DTD SVG 1.1//EN" "http://www.w3.org/Graphics/SVG/1.1/DTD/svg11.dtd">
<svg version="1.1" id="Capa_1" opacity="0.15" xmlns="http://www.w3.org/2000/svg" xmlns:xlink="http://www.w3.org/1999/xlink"
	 x="0px" y="0px" width="258.057px" height="258.059px" viewBox="0 0 258.057 258.059" enable-background="new 0 0 258.057 258.059"
	 xml:space="preserve">
<path fill="#115D74" d="M40.865,38.521c-71.119,0.05-128.871,57.903-128.854,129.08c0.015,70.945,57.797,128.961,128.457,128.979
	c72.097,0.018,129.692-57.679,129.6-129.827C169.978,96.154,111.858,38.472,40.865,38.521z M40.052,290.584
	C-27.498,290.394-82.251,234.59-81.99,166.193C-81.739,99.365-25.866,44.22,41.284,44.52
	c67.915,0.303,123.057,55.611,122.786,123.159C163.796,236.062,108.589,290.774,40.052,290.584z"/>
<path fill="#115D74" d="M41.998,46.864c-64.032-0.82-118.353,48.586-121.681,114.94c-3.331,66.421,47.246,122.974,114.665,126.498
	c67.161,3.51,125.027-49.41,126.585-117.4C163.915,107.905,114.093,47.789,41.998,46.864z M-31.16,250.808
	c7.875-3.559,15.851-6.805,23.5-10.69c17.139-8.712,32.797-19.625,46.637-33.013c2.143-2.071,3.175-1.662,5.055,0.205
	c19.539,19.412,42.501,33.375,68.423,42.566C78.101,283.946,11.452,289.356-31.16,250.808z M-25.033,240.496
	c22.079-29.564,44.157-59.129,66.558-89.124c22.314,29.917,44.423,59.555,66.532,89.193c0.369,1.037-0.073,1.265-1.004,1.002
	c-14.408-14.024-28.831-28.035-43.221-42.084c-6.545-6.389-13.136-12.737-19.467-19.334c-2.225-2.317-3.357-2.266-5.644-0.008
	c-20.815,20.562-41.775,40.973-62.692,61.43C-24.906,241.789-25.336,241.504-25.033,240.496z M115.235,247.711
	c-5.146-13.752-10.612-27.269-16.847-40.465c-14.545-30.793-32.208-59.667-53.427-86.307c-2.908-3.65-2.556-5.434,1.192-7.688
	c3.123-1.879,5.777-4.529,8.88-6.45c3.117-1.929,3.547-3.947,2.146-7.322c-2.644-6.353-2.421-6.444-8.051-2.895
	c-0.072,0.146-0.106,0.339-0.223,0.431c-7.452,5.931-7.453,5.93-14.937-0.443c-1.816-1.106-3.631-2.212-5.461-3.327
	c-5.007,10.223-4.989,10.198,3.637,16.646c2.92,2.183,7.546,4.199,8.03,6.896c0.432,2.405-3.729,5.678-5.94,8.509
	c-28.692,36.73-50.614,77.153-66.064,121.106c-0.325,0.927-0.313,2.011-1.318,2.582c-29.015-24.313-45.64-70.05-31.507-114.326
	C-49.994,88.729-7.23,57.29,40.853,57.619c-9.684,7.547-18.604,14.499-27.968,21.796c7.479,5.494,14.795,10.866,22.11,16.239
	c4.37,4.371,8.726,4.049,13.069-0.042c6.304-4.614,12.521-9.355,18.955-13.783c2.629-1.809,3.04-2.682,0.193-4.781
	c-8.161-6.022-16.091-12.358-24.235-18.667c30.297-1.99,75.179,18.054,96.128,60.671
	C161.423,164.445,148.814,218.246,115.235,247.711z"/>
</svg>
