<?xml version="1.0" encoding="utf-8"?>
<!-- Generator: Adobe Illustrator 16.0.3, SVG Export Plug-In . SVG Version: 6.00 Build 0)  -->
<!DOCTYPE svg PUBLIC "-//W3C//DTD SVG 1.1//EN" "http://www.w3.org/Graphics/SVG/1.1/DTD/svg11.dtd">
<svg version="1.1" id="Capa_1" xmlns="http://www.w3.org/2000/svg" xmlns:xlink="http://www.w3.org/1999/xlink" x="0px" y="0px"
	 width="258.057px" height="258.059px" opacity="0.15" viewBox="0 0 258.057 258.059" enable-background="new 0 0 258.057 258.059"
	 xml:space="preserve">
<path fill="#115D74" d="M224.641,14.699C153.522,14.749,95.77,72.603,95.786,143.78c0.015,70.945,57.797,128.961,128.457,128.98
	c72.097,0.018,129.691-57.68,129.601-129.828C353.754,72.332,295.634,14.651,224.641,14.699z M223.828,266.762
	c-67.551-0.189-122.304-55.994-122.043-124.391c0.252-66.829,56.124-121.973,123.274-121.673
	c67.915,0.303,123.057,55.611,122.786,123.16C347.573,212.241,292.365,266.954,223.828,266.762z"/>
<path fill="#115D74" d="M225.774,23.042c-64.032-0.82-118.353,48.586-121.681,114.941c-3.331,66.422,47.246,122.975,114.665,126.498
	c67.161,3.51,125.026-49.41,126.586-117.4C347.691,84.083,297.868,23.967,225.774,23.042z M152.615,226.987
	c7.875-3.559,15.851-6.805,23.5-10.689c17.139-8.713,32.797-19.625,46.637-33.014c2.143-2.07,3.175-1.662,5.055,0.205
	c19.539,19.412,42.501,33.375,68.423,42.566C261.877,260.126,195.228,265.536,152.615,226.987z M158.742,216.675
	c22.079-29.564,44.157-59.129,66.558-89.124c22.314,29.917,44.423,59.556,66.532,89.194c0.369,1.037-0.073,1.264-1.004,1.002
	c-14.408-14.025-28.831-28.035-43.221-42.084c-6.545-6.389-13.136-12.738-19.467-19.334c-2.225-2.318-3.357-2.266-5.644-0.008
	c-20.815,20.561-41.775,40.973-62.692,61.43C158.869,217.968,158.44,217.682,158.742,216.675z M299.011,223.889
	c-5.146-13.752-10.612-27.268-16.847-40.465c-14.545-30.793-32.208-59.667-53.427-86.307c-2.908-3.65-2.556-5.434,1.192-7.688
	c3.123-1.879,5.777-4.529,8.88-6.45c3.117-1.929,3.547-3.947,2.146-7.322c-2.644-6.353-2.421-6.444-8.051-2.895
	c-0.072,0.146-0.106,0.339-0.223,0.431c-7.452,5.931-7.453,5.93-14.937-0.443c-1.816-1.106-3.631-2.212-5.461-3.327
	c-5.007,10.223-4.989,10.198,3.637,16.646c2.92,2.183,7.546,4.199,8.03,6.896c0.432,2.405-3.729,5.678-5.94,8.509
	c-28.692,36.731-50.614,77.155-66.064,121.108c-0.325,0.926-0.313,2.01-1.318,2.582c-29.015-24.314-45.64-70.051-31.507-114.328
	c14.66-45.928,57.425-77.367,105.508-77.038c-9.684,7.547-18.604,14.499-27.968,21.796c7.479,5.494,14.795,10.866,22.11,16.239
	c4.37,4.371,8.726,4.049,13.069-0.042c6.304-4.614,12.521-9.355,18.955-13.783c2.629-1.809,3.04-2.682,0.193-4.781
	c-8.161-6.022-16.091-12.358-24.235-18.667c30.297-1.99,75.179,18.054,96.129,60.671
	C345.199,140.624,332.589,194.425,299.011,223.889z"/>
</svg>
