<?xml version="1.0" encoding="utf-8"?>
<!-- Generator: Adobe Illustrator 16.0.3, SVG Export Plug-In . SVG Version: 6.00 Build 0)  -->
<!DOCTYPE svg PUBLIC "-//W3C//DTD SVG 1.1//EN" "http://www.w3.org/Graphics/SVG/1.1/DTD/svg11.dtd">
<svg version="1.1" id="Capa_1" xmlns="http://www.w3.org/2000/svg" xmlns:xlink="http://www.w3.org/1999/xlink" x="0px" y="0px"
	 width="4376px" height="2432px" viewBox="0 0 4376 2432" enable-background="new 0 0 4376 2432" xml:space="preserve">
<g>
	<path fill-rule="evenodd" clip-rule="evenodd" fill="#175D73" d="M2767.587,553.69c7.007-2.083,13.896-4.65,20.646-7.464
		c3.575-1.49,3.778-4.335,1.019-7.167c-1.164-1.193-2.367-2.348-3.52-3.55c-16.156-16.849-32.913-33.023-52.484-45.959
		c-4.418-2.921-4.97-5.317-2.023-10.413c8.241-14.252,5.229-30.099-6.752-41.922c-2.846-2.809-5.685-5.627-8.449-8.516
		c-35.088-36.656-75.193-65.151-124.689-79.512c-25.158-7.3-50.504-11.825-76.625-11.667c-36.995,0.222-73.988,0.76-110.98,1.269
		c-20.322,0.279-40.564,1.651-60.629,5.109c-20.33,3.503-40.684,6.874-61.01,10.399c-17.354,3.01-34.81,5.594-51.992,9.4
		c-17.539,3.886-35.391,6.31-52.69,11.298c-2.149,0.62-4.466,1.572-6.54-0.321c-0.51-1.792,0.061-3.456,1.051-4.738
		c4.321-5.597,7.029-12.11,9.667-18.48c5.804-14.011,7.839-19.741-5.448-34.101c-2.253-2.435-4.791-4.621-7.313-6.787
		c-11.217-9.635-24.404-16.056-37.435-22.696c-8.498-4.33-8.269-4.327-5.469-13.671c2.067-6.899,5.088-13.823,3.828-21.33
		c-3.417-20.343-13.733-36.093-30.395-48.472c-21.33-15.848-45.045-27.013-69.352-36.973c-8.379-3.434-17.619-5.211-27.186-1.606
		c-7.39,2.784-13.411,7.153-19.127,12.187c-11.582,10.199-20.607,22.631-29.58,35.024c-26.175,36.153-48.385,74.771-69.818,113.835
		c-13.431,24.479-26.512,49.152-39.528,73.855c-6.401,12.148-11.208,24.84-10.969,38.949c0.151,8.946-3.329,16.998-7.373,24.658
		c-8.042,15.23-19.282,27.972-32.774,38.53c-32.902,25.745-70.652,42.094-109.757,55.679c-14.767,5.13-29.964,9.212-44.303,15.324
		c-15.564,6.634-30.387,15.018-45.482,22.739c-35.83,18.328-71.179,37.542-106.227,57.324
		c-31.259,17.644-62.127,35.946-92.375,55.259c-35.862,22.896-71.019,46.81-105.154,72.271
		c-22.408,16.714-44.054,34.321-65.142,52.581c-23.689,20.511-45.618,42.938-66.603,66.208c-5.924,6.568-11.84,13.405-14.94,22.168
		c-4.736,13.39-2.371,26.399,2.218,38.943c9.909,27.086,31.458,41.233,57.848,48.765c12.123,3.46,24.787,5.023,37.204,7.455
		c1.858,0.364,4.157-0.056,4.807,2.619c-0.59,2.881-3.139,4.1-5.041,5.891c-7.034,6.622-13.847,13.413-19.969,20.955
		c-18.92,23.31-35.662,48.075-50.877,73.928c-1.232,2.094-1.513,6.122-5.624,5.65c-1.374-2.908-0.204-5.517-0.122-8.137
		c0.357-11.515-2.717-21.894-11.355-29.862c-10.275-9.479-20.767-18.735-31.42-27.787c-9.253-7.863-19.979-11.723-32.323-10.376
		c-3.999,0.437-7.992,0.024-11.883-1.086c-16.753-4.779-30.467,1.272-40.873,13.699c-10.223,12.208-18.119,26.234-25.687,40.313
		c-12.298,22.879-22.322,46.797-32.376,70.703c-0.644,0.764-1.399,1.505-1.72,2.436c-10.179,29.535-21.096,58.788-30.273,88.708
		c-5.401,17.607-10.297,35.402-16.041,52.919l0.031-0.036c-1.724,2.44-3.641,4.749-4.433,7.744
		c-9.282,35.067-20.105,69.725-28.198,104.922c1.473-12.097,2.428-24.305,6.759-36.304c10.605-29.38,18.458-59.588,24.54-90.259
		c3.405-17.168,1.68-34.452,2.042-51.688c0.117-5.554-0.109-10.445,6.887-12.447c4.064-1.164,5.454-5.359,6.164-9.561
		c4.591-27.156,10.353-54.092,15.235-81.203c9.182-50.982,16.41-102.21,21.601-153.713c5.609-55.657,7.156-111.486,1.995-167.247
		c-3.118-33.695-9.055-66.979-23.06-98.239c-0.686-1.138-1.507-2.216-2.036-3.423c-9.482-21.607-22.194-40.816-40.957-55.593
		c-4.285-3.375-7.15-7.7-8.926-12.954c-4.674-13.822-9.524-27.573-16.724-40.379c-13.89-24.707-31.304-46.062-55.709-61.28
		c-18.431-11.492-38.706-17.355-59.733-21.466c-6.762-1.322-13.175-0.761-19.704,1.081c-16.339,4.609-28.998,14.771-39.856,27.149
		c-15.149,17.269-28.543,35.923-41.501,54.894c-5.665,8.293-10.921,16.59-12.621,26.777c-1.036,6.209-2.63,12.358-4.438,18.395
		c-1.959,6.546-2.854,13.033-0.749,19.632c0.984,3.086,0.803,5.669-1.127,8.438c-3.606,5.175-7.4,10.335-10.117,15.982
		c-3.125,6.495-8.238,9.418-14.78,10.275c-5.563,0.729-9.916,3.475-14.263,6.655c-14.35,10.497-23.532,25.341-32.503,40.018
		c-27.242,44.565-49.502,91.766-71.769,138.931c-5.167,10.945-6.792,22.34-1.449,33.807c1.855,3.983,1.312,7.472-0.177,11.47
		c-3.937,10.573-7.626,21.255-10.899,32.05c-1.807,5.959-4.583,9.437-11.143,11.034c-11.703,2.85-18.357,11.226-21.023,22.94
		c-1.34,5.889-1.929,11.737-1.627,17.795c0.417,8.387,0.209,8.464-7.457,11.478c-6.712,2.638-12.228,6.741-16.132,12.825
		c-6.24,9.725-10.685,20.888-10.136,31.879c0.564,11.316-2.082,20.469-6.213,30.671c-7.48,18.473-14.982,36.955-22.801,55.283
		c-13.689,32.089-28.381,63.739-44.224,94.828c-11.614,22.791-23.686,45.346-36.85,67.297
		c-14.487,24.157-30.126,47.405-40.219,74.276c-13.761,36.64-30.801,71.996-49.391,106.589
		c-24.153,44.943-51.005,87.902-85.313,125.896c-15.202,16.835-31.247,32.845-49.182,46.721
		c-11.063,8.561-20.748,17.631-24.15,31.804c-0.791,3.296-2.191,6.576-5.798,7.587c-14.195,3.975-26.583,12.099-40.259,17.302
		c-10.474,3.984-17.766,11.487-20.74,22.669c-0.753,2.832-1.099,6.1-5.025,6.551c0,3.333,0,6.667,0,10
		c4.912,17.387,12.859,32.998,23.547,47.806c7.873,10.908,16.472,18.945,29.419,22.142c11.964,2.954,23.874,6.179,36.131,7.78
		c6.163,0.805,10.549,3.505,11.967,10.116c4.066,18.965,13.676,35.277,24.741,50.858c14.419,20.306,32.127,35.474,58.313,37.587
		c4.64,0.375,9.176,1.873,13.795,2.289c21.081,1.895,38.081,9.901,48.744,29.421c5.627,10.3,15.55,14.857,27.117,16.6
		c15.471,2.33,30.703,6.031,46.012,9.247c20.223,4.25,26.246,1.706,36.229-16.725c7.316-13.508,13.199-27.65,18.277-42.142
		c18.739-53.476,33.968-107.999,48.52-162.722c2.249-8.458,4.965-16.563,11.095-23.158c10.711-11.522,22.363-21.967,35.62-30.449
		c27.84-17.814,57.333-32.584,87.184-46.656c2.596-1.223,5.67-3.827,8.324-1.742c2.64,2.074,0.685,5.64,0.268,8.47
		c-3.832,26.027-6.889,52.172-9.767,78.297c-5.865,53.249-12.379,106.425-17.16,159.808c-3.086,34.458-5.65,68.965-8.99,103.405
		c-3.501,36.099-4.288,72.415-5.608,108.61c-2.038,55.887-1.868,111.966,12.08,166.789c8.834,34.725,25.368,62.266,76.735,58.591
		c3.141-0.226,5.94,0.553,8.633,1.951c4.469,2.321,9.194,4.85,14.086,4.836c13.966-0.04,20.862,7.291,23.857,20.103
		c1.139,4.872,4.26,8.982,7.549,12.825c4.378,5.118,10.113,7.504,16.583,8.272c5.332,0.634,10.296-0.426,12.46-5.987
		c2.662-6.843,6.218-4.96,10.717-2.052c6.711,4.338,12.207,10.367,19.52,13.83c4.667,0,9.333,0,14,0
		c2.117-3.424,7.277-1.968,9.146-5.459c2.404-4.489-2.591-7.13-3.223-10.919c-0.109-0.657-0.175-1.323-0.324-1.971
		c-4.75-20.56-6.27-41.425-6.295-62.477c-0.05-41.063,4.11-81.83,8.623-122.556c3.19-28.788,6.3-57.627,10.936-86.201
		c4.742-29.229,9.283-58.5,14.402-87.668c6.442-36.705,12.915-73.412,20.024-109.991c3.872-19.923,7.954-39.83,11.854-59.738
		c5.243-26.757,10.484-53.521,16.071-80.203c5.592-26.708,11.56-53.279,13.117-80.667c0.627-11.041,2.989-21.982,4.561-32.969
		c3.659,3.795,3.004,8.072,3.396,12.127c2.118,21.945,5.01,43.793,15.417,63.622c11.321,21.571,28.221,36.281,52.508,42.555
		c16.142,4.169,33.204,0.699,48.896,7.08c0.29,0.118,0.663,0.064,0.994,0.04c4.919-0.367,7.705,1.356,9.521,6.515
		c2.864,8.134,6.956,15.932,13.32,22.022c12.123,11.601,25.573,19.494,43.134,12.944c5.139-1.917,9.28,0.03,13.001,2.827
		c6.792,5.105,13.406,4.313,20.575,0.953c13.207-6.189,22.046-17.008,30.19-28.378c20.671-28.861,33.984-61.563,47.003-94.195
		c11.783-29.534,20.5-60.256,33.293-89.457c8.394-19.156,16.35-38.506,24.84-57.618c9.966-22.437,20.24-44.736,30.49-67.046
		c10.106-21.996,20.227-43.986,30.564-65.874c9.914-20.989,20.071-41.865,30.203-62.751c7.098-14.632,14.343-29.192,21.504-43.793
		c1.865-3.804,4.183-5.934,8.6-3.24c18.737,11.429,39.46,17.579,60.718,21.891c6.298,1.277,11.021,3.851,15.242,8.446
		c11.4,12.412,24.989,21.712,40.381,28.681c18.099,8.195,37.24,12.224,56.619,15.519c5.678,0.966,11.071-0.257,16.66-1.854
		c15.089-4.313,29.555-10.078,43.821-16.519c5.856-2.644,7.597-1.302,6.563,4.738c-4.099,23.937-8.004,47.914-12.281,71.809
		c-3.698,20.658-6.445,41.446-9.866,62.134c-4.124,24.939-6.274,50.203-10.326,75.156c-4.007,24.683-6.475,49.542-9.459,74.324
		c-4.776,39.661-8.506,79.464-11.895,119.273c-3.249,38.17-5.604,76.418-8.162,114.645c-2.604,38.914-2.594,77.925-3.752,116.889
		c-0.92,30.973-0.499,61.988-0.456,92.984c0.014,10.543,2.951,20.312,9.462,28.859c7.861,10.318,15.276,20.995,23.487,31.022
		c7.841,9.576,16.33,18.479,29.988,19.745c7.547,0.7,14.692-0.604,21.521-3.136c7.3-2.706,13.6-1.752,21.11,0.247
		c8.877,2.364,13.683,6.867,18.343,14.222c6.375,10.061,14.533,18.986,21.865,28.446c7.668,9.892,9.563,10.486,20.897,6.063
		c1.549-0.604,3.001-1.454,4.543-2.082c13.9-5.654,13.904-5.648,27.65,1.342c0.593,0.302,1.145,0.688,1.742,0.98
		c9.413,4.606,17.584,2.186,23.179-6.589c3.223-5.054,3.708-10.532,3.595-16.287c-1.142-58.405,2.722-116.521,9.597-174.504
		c1.962-16.546,5.027-32.943,6.542-49.517c2.154-23.565,6.749-46.761,9.962-70.162c2.806-20.441,6.434-40.788,9.717-61.164
		c3.492-21.668,7.501-43.243,11.051-64.898c2.799-17.071,6.784-33.966,9.125-51.092c2.483-18.156,6.934-35.908,9.781-53.986
		c2.896-18.392,7.43-36.52,10.632-54.871c2.12-12.148,4.916-24.139,7.249-36.231c3.275-16.979,5.76-34.136,9.712-50.952
		c3.809-16.207,6.549-32.617,10.322-48.836c6.022-25.888,10.31-52.174,15.916-78.166c3.713-17.217,7.416-34.454,11.035-51.68
		c3.074-14.634,6.179-29.304,9.52-43.861c4.375-19.066,10.55-37.719,15.872-56.571c6.861-24.304,13.658-48.626,20.453-72.949
		c3.041-10.883,5.929-21.808,9.034-32.672c2.829-9.896,6.09-19.654,8.631-29.652c3.021-11.888,6.996-23.529,10.4-35.323
		c5.614-19.448,10.914-38.989,16.697-58.387c5.792-19.427,12.14-38.687,18.012-58.09c7.5-24.781,14.376-49.758,22.254-74.417
		c6.571-20.566,13.049-41.161,19.63-61.722c8.899-27.806,18.149-55.509,27.792-83.066c7.566-21.624,15.929-42.97,23.983-64.422
		c8.754-23.318,18.393-46.267,29.239-68.688c5.204-10.758,10.919-21.274,18.233-30.782c3.429-4.456,6.758-9.448,12.333-11.316
		c18.925-6.34,37.726-13.024,56.556-19.634c23.194-8.141,46.679-15.465,70.121-22.88c27.585-8.726,55.223-17.276,83.121-24.991
		c19.223-5.316,38.409-10.746,57.79-15.459c12.936-3.145,25.748-7.01,38.838-9.246c16.399-2.802,32.552-6.743,48.977-9.504
		c25.338-4.259,50.775-7.024,76.318-9.135c24.666-2.038,49.227-0.438,73.785,2.425c25.253,2.944,49.807,8.884,73.767,16.977
		c22.052,7.449,43.278,17.105,63.671,28.409C2759.254,553.696,2763.354,554.948,2767.587,553.69z M1176.117,1524.092
		c-0.313,1.581-0.996,3.142-1.771,4.571c-3.125,5.76-7.051,11.203-6.644,18.255c0.036,0.63-0.178,1.326-0.445,1.914
		c-1.169,2.574-2.957,4.788-6.001,4.029c-2.61-0.65-3.01-3.219-2.898-6.016c0.661-3.534,0.433-7.581,2.566-11.162
		c2.698-4.529,5.576-8.953,6.819-14.232c0.723-3.072,3.067-4.27,6.096-3.181C1176.634,1519.274,1176.576,1521.774,1176.117,1524.092
		z M1271.202,1315.008c-3.809,6.998-7.409,14.043-9.071,21.955c-0.482,2.295-2.072,4.547-4.905,3.975
		c-3.239-0.656-3.783-3.368-3.505-6.241c0.095-0.985,0.229-2.055,0.686-2.903c4.088-7.605,8.226-15.184,12.419-22.73
		c0.64-1.151,1.699-2.208,3.183-1.905c2.21,0.451,1.717,2.485,2.172,4.377C1271.922,1312.492,1271.812,1313.887,1271.202,1315.008z
		 M1520.818,833.258c17.144-11.434,35.569-20.681,53.205-31.274c10.25-6.157,20.592-12.158,30.919-18.183
		c2.585-1.508,5.279-2.832,7.914-4.257c2.253-1.219,4.583-1.724,6.143,0.791c1.322,2.132,0.994,4.457-0.565,6.54
		c-2.568,3.43-6.635,4.47-10.224,5.995c-14.716,6.253-29.055,13.189-42.836,21.328c-11.435,6.753-23.546,12.464-30.407,24.896
		c-2.619,4.746-7.88,2.269-11.499,3.211c-3.201-0.521-7.302,1.468-8.37-2.047C1513.909,836.35,1518.115,835.062,1520.818,833.258z
		 M1352.411,966.463c-1.389,1.229-2.604,3.126-5.879,2.051c1.98-4.926,4.906-9.038,8.262-13.017
		c13.607-16.129,30.324-28.811,46.659-41.848c20.488-16.351,42.271-30.931,64.308-45.117c3.081-1.983,6.033-4.274,9.644-4.99
		c3.245-0.643,6.039,0.518,6.808,4.15c0.606,2.858-0.137,5.224-3.269,6.364c-22.517,8.194-40.923,23.01-59.691,37.212
		C1396.192,928.718,1374.065,947.305,1352.411,966.463z M1691.176,836.834c-5.817,16.335-9.174,33.348-13.902,49.978
		c-5.005,17.604-9.167,35.433-14.135,53.023c-5.969,21.135-10.704,42.567-16.551,63.725c-4.158,15.047-7.35,30.362-11.015,45.546
		c-4.684,19.406-9.522,38.776-14.088,58.209c-4.639,19.745-8.669,39.639-13.646,59.295c-3.756,14.839-6.347,29.918-10.252,44.735
		c-3.806,14.439-6.661,29.188-8.916,43.957c-1.664,10.9-5.726,21.24-6.652,32.245c-0.178,2.111-0.925,3.869-3.128,4.638
		c-10.676,3.725-17.659,12.795-26.861,18.705c-5.271,3.386-10.39,7.069-16.256,9.979c5.502-8.858,13.573-15.396,21.033-22.354
		c15.167-14.145,19.623-31.862,19.326-51.528c-0.092-6.056-1.452-11.968-4.284-17.336c-3.717-7.046-7.42-14.151-11.808-20.782
		c-8.31-12.56-19.882-19.142-35.381-17.599c-5.456,0.543-10.354-0.706-15.067-3.845c-10.708-7.132-22.273-7.84-34.238-3.379
		c-7.526,2.806-7.757,2.827-9.352-5.587c-2.205-11.637-6.75-22.181-13.49-31.888c-7.751-11.163-17.291-20.28-30.009-25.359
		c-7.022-2.805-9.792-7.252-11.082-14.761c-2.24-13.043-4.565-26.109-9.883-38.588c-5.315-12.471-1.875-24.595,5.22-35.932
		c12.753-20.381,30.294-36.221,48.564-51.234c45.307-37.231,94.73-68.495,144.848-98.703c28.173-16.981,56.542-33.623,85.365-49.486
		c1.712-0.943,3.336-2.922,5.236-1.317C1692.445,832.604,1691.847,834.952,1691.176,836.834z"/>
	<path fill-rule="evenodd" clip-rule="evenodd" fill="#175D73" d="M480,2c1.986,4.366,6.069,3.423,9.572,3.631
		c24.283,1.441,48.307,5.142,72.391,8.285c8.679,1.133,9.307,2.129,9.314,10.823c0.013,16.32,0.006,32.641-0.021,48.962
		c-0.016,9.756-0.058,9.875-10.203,9.898c-25.985,0.059-51.97,0.019-77.955,0.019c-2.332,0-4.668-0.085-6.995,0.025
		c-7.25,0.345-8.339,1.464-7.161,8.301c1.933,11.211,1.437,22.572,2.298,33.851c4.519,59.172,5.745,118.417,2.454,177.707
		c-1.181,21.277-2.281,42.564-3.952,63.805c-1.544,19.63-2.241,15.813-16.576,15.926c-19.987,0.158-39.977,0.091-59.965,0.026
		c-9.741-0.032-10.057-0.47-10.862-9.919c-5.036-59.119-7.559-118.344-5.806-177.657c1.022-34.594,2.146-69.228,6.199-103.664
		c0.878-7.457,0.116-8.348-8.203-8.375c-26.651-0.085-53.302-0.028-79.954-0.026c-1.999,0-3.999,0.049-5.996-0.008
		c-8.475-0.242-8.839-0.583-8.86-9.256c-0.04-16.657-0.039-33.313-0.013-49.97c0.014-9.006,0.017-9.277,9.37-10.496
		c23.755-3.097,47.463-6.644,71.397-8.224C363.971,5.434,368.07,6.439,370,2C406.667,2,443.333,2,480,2z"/>
	<path fill-rule="evenodd" clip-rule="evenodd" fill="#175D73" d="M3989.031,539.728c-1.234-1.562-2.757-2.893-4.102-4.371
		c-15.737-17.298-32.854-33.038-52.325-46.083c-3.856-2.583-4.935-4.516-2.412-9.567c7.386-14.785,3.706-33.772-7.743-43.994
		c-3.469-3.097-6.393-6.795-9.671-10.114c-34.401-34.826-73.25-62.298-121.033-76.199c-25.482-7.414-51.134-12.077-77.611-11.889
		c-36.66,0.259-73.318,0.779-109.977,1.268c-20.655,0.275-41.228,1.638-61.618,5.176c-19.999,3.47-40.016,6.838-60.021,10.277
		c-16.702,2.872-33.566,5.054-50.05,8.877c-16.859,3.911-34.093,5.989-50.754,10.846c-3.306,0.963-6.911,2.512-11.707,1.02
		c0.645-2.038,0.802-3.413,1.459-4.479c4.889-7.936,8.502-16.443,12.231-24.97c4.098-9.369,1.274-16.758-4.135-24.018
		c-2.996-4.02-6.69-7.4-10.531-10.626c-11.561-9.71-24.826-16.589-38.315-23.072c-7.715-3.708-8.424-4.771-5.082-12.899
		c5.511-13.403,4.424-26.367-1.097-39.521c-5.768-13.739-15.719-23.636-27.322-32.369c-20.675-15.558-44.063-26.048-67.776-35.676
		c-8.021-3.256-16.854-5.143-26.234-1.669c-7.792,2.885-14.088,7.291-19.934,12.725c-20.948,19.475-36.118,43.453-51.521,67.154
		c-19.02,29.264-36.163,59.666-52.637,90.426c-12.709,23.729-25.038,47.661-37.57,71.485c-4.894,9.304-7.101,19.249-7.756,29.685
		c-0.697,11.115-4.078,21.303-9.824,31.033c-11.486,19.452-27.703,34.018-46.264,46.108
		c-36.251,23.613-76.186,39.067-117.243,51.949c-8.23,2.582-16.647,5.038-24.31,8.884c-49.313,24.75-98.236,50.235-146.225,77.508
		c-48.547,27.591-96.119,56.693-142.43,87.92c-42.235,28.479-82.896,59.001-121.383,92.31
		c-24.442,21.154-46.961,44.431-68.721,68.339c-13.036,14.322-20.216,30.105-14.736,50.874c8.452,32.034,30.354,49.062,60.031,57.88
		c16.228,4.823,33.055,7.873,50.137,8.368c4.602,0.133,7.024,1.586,8.336,6.512c2.149,8.073,6.111,15.369,12.682,21.062
		c7.076,6.13,6.891,6.254,1.667,14.713c-20.938,33.908-40.977,68.365-62.763,101.758c-19.442,29.801-38.767,59.675-58.803,89.085
		c-21.904,32.153-44.462,63.844-67.948,94.843c-8.979,11.851-16.37,25.219-28.979,34.073c-12.173,8.549-21.382,19.897-29.541,32.126
		c-7.592,11.378-15.774,22.251-25.212,32.179c-12.402,13.049-25.41,25.465-38.933,37.336c-4.743,4.164-9.844,7.921-14.766,11.883
		c-1.316,1.059-2.71,2.298-4.439,1.424c-2.389-1.207-1.342-3.385-1.015-5.265c0.17-0.982,0.479-1.94,0.722-2.91
		c5.425-21.595,10.912-43.175,16.258-64.79c6.061-24.506,12.388-48.941,19.737-73.094c4.155-13.654,8.028-27.469,13.374-40.666
		c6.859-16.932,7.447-16.702-7.639-27.628c-1.61-1.165-3.287-2.248-4.996-3.265c-14.202-8.455-29.639-13.411-45.862-16.122
		c-6.261-1.046-6.67-1.67-4.851-7.754c2.381-7.962,5.493-15.56,9.496-22.917c7.221-13.273,5.251-28.858-4.926-39.949
		c-13.777-15.013-30.859-25.35-49.888-32.042c-17.601-6.189-35.949-9.271-54.509-11.821c-25.783-3.543-45.107,5.776-59.303,26.399
		c-13.052,18.961-23.349,39.318-28.251,62.182c-4.324,20.165-9.891,40.063-14.211,60.229c-5.362,25.028-9.519,50.32-15.089,75.299
		c-6.443,28.896-11.63,58.027-17.391,87.047c-6.021,30.331-11.452,60.783-16.951,91.22c-4.437,24.555-9.56,48.986-13.258,73.682
		c-5.205,34.754-0.382,68.541,11.916,100.975c10.821,28.539,30.748,48.751,61.292,56.574c13.545,3.47,27.191,7.272,41.352,4.128
		c12.707-2.822,11.324,0.054,14.655,7.742c8.993,20.758,23.703,34.739,46.558,39.637c14.563,3.119,28.503,0.801,42.467-2.595
		c4.479-1.089,9.24-1.397,13.311-4.03c17.019-11.006,33.766-22.408,50.125-34.371c26.356-19.272,51.696-39.771,75.151-62.537
		c1.291-1.252,2.585-3.263,5.454-1.136c-5.495,9.688-10.973,19.432-16.529,29.129c-19.092,33.312-35.79,67.595-42.523,105.85
		c-1.729,9.823-4.746,19.902-3.923,29.589c1.532,18.039,9.202,33.892,23.677,45.734c13.822,11.309,29.542,18.955,46.229,25.123
		c13.472,4.98,27.313,8.449,41.09,12.274c4.37,1.213,9.174,1.953,11.875,6.593c7.963,13.676,21.086,20.857,34.854,27.033
		c18.283,8.201,37.631,13.148,56.951,18.157c4.666,1.21,9.145,1.364,13.644-0.703c5.738-2.638,11.623-4.96,17.337-7.646
		c32.061-15.073,61.941-33.562,88.427-57.229c20.173-18.025,38.464-37.748,53.907-60.07c2.787-4.027,3.778-7.617,1.937-12.006
		c-3.21-7.65-6.303-15.357-9.778-22.888c-1.569-3.4-1.568-6.077,0.6-9.247c2.992-4.376,5.414-9.052,6.763-14.354
		c1.285-5.054,3.207-5.477,7.303-1.288c2.826,2.89,4.896,2.935,7.509,0.415c1.919-1.85,3.791-3.756,5.575-5.733
		c15.644-17.335,28.629-36.684,41.985-55.74c1.668-2.379,2.718-5.41,3.299-8.292c1.909-9.466,3.986-18.943,5.053-28.522
		c1.957-17.574,5.981-34.772,9.537-52.001c4.9-23.747,10.441-47.422,18.332-70.445c5.393-15.731,11.143-31.302,20.854-44.982
		c4.845-6.826,10.415-13.061,19.368-14.521c3.675-0.599,5.88-3.182,7.753-5.859c9.021-12.901,19.797-24.237,31.077-35.11
		c2.483-2.394,4.692-7.624,8.297-5.777c3.841,1.968,1.807,7.351,1.089,10.926c-4.33,21.585-6.695,43.451-9.818,65.207
		c-3.17,22.076-7.162,44.085-9.131,66.271c-2.711,30.534-7.264,60.839-10.099,91.358c-2.31,24.867-4.167,49.773-6.604,74.626
		c-2.212,22.553-3.28,45.174-4.858,67.764c-2.763,39.562-5.18,79.146-6.115,118.771c-1.029,43.641-0.736,87.316-0.762,130.977
		c-0.006,10.174,3.309,19.408,9.381,27.878c6.979,9.736,14.776,18.816,21.905,28.434c7.702,10.39,16.408,20.086,30.84,21.896
		c7.628,0.957,15.19,0.285,21.441-2.935c12.08-6.221,21.853,2.147,32.686,3.257c1.003,0.103,2.167,1.585,2.718,2.694
		c7.772,15.65,20.577,27.632,30.381,41.795c2.34,3.379,5.661,4.536,9.637,3.345c2.863-0.859,5.93-1.441,8.473-2.901
		c11.323-6.501,21.834-6.903,33.281,0.772c8.625,5.785,17.339,2.392,23.046-6.445c3.461-5.359,3.726-11.214,3.58-17.285
		c-1.487-62.094,3.2-123.832,10.869-185.386c2.47-19.82,5.131-39.619,7.964-59.39c3.021-21.088,7.016-42.058,9.354-63.215
		c2.234-20.215,6.985-39.964,9.485-60.134c2.492-20.112,7.201-39.943,10.757-59.93c5.537-31.118,10.701-62.304,16.435-93.385
		c4.888-26.493,10.408-52.868,15.553-79.314c5.65-29.055,10.597-58.262,17.006-87.146c3.747-16.885,7.041-33.86,10.732-50.752
		c5.962-27.274,10.479-54.875,16.859-82.043c3.88-16.521,7.418-33.143,10.829-49.725c4.633-22.522,11.625-44.346,17.326-66.532
		c6.938-26.998,15.407-53.601,23.028-80.427c5.804-20.427,11.115-40.994,17.01-61.394c7.556-26.148,15.458-52.197,23.243-78.278
		c7.223-24.194,14.479-48.379,21.738-72.562c6.112-20.362,12.228-40.723,18.392-61.07c2.788-9.205,5.688-18.377,8.557-27.557
		c5.446-17.424,10.675-34.921,16.418-52.247c8.253-24.894,16.81-49.688,25.379-74.477c7.16-20.713,13.984-41.566,21.938-61.976
		c9.99-25.634,20.036-51.293,32.103-76.045c5.519-11.32,11.351-22.59,19.149-32.609c3.459-4.445,6.828-9.501,12.372-11.269
		c11.41-3.637,22.553-7.997,33.885-11.814c30.234-10.187,60.637-19.877,90.874-30.055c32.793-11.038,66.072-20.471,99.303-30.015
		c22.041-6.33,44.52-11.143,66.83-16.522c33.984-8.194,68.244-14.706,103.006-18.903c36.876-4.453,73.581-6.054,110.576-1.351
		c25.881,3.29,51.131,9.007,75.691,17.428c21.684,7.435,42.676,16.762,62.707,28.021c4.021,2.26,8.132,3.624,12.372,2.364
		c7.001-2.08,13.85-4.736,20.629-7.479C3990.943,544.951,3991.066,542.303,3989.031,539.728z M2163.621,1669.593
		c-1.836,4.843-3.396,9.905-7.649,13.374c-1.352,1.103-3.075,1.656-4.521,0.688c-2.005-1.344-1.719-3.571-0.549-5.217
		c2.632-3.701,4.688-7.897,8.467-10.682c0.74-0.545,1.653-0.855,2.238-1.148C2163.708,1666.953,2164.031,1668.511,2163.621,1669.593
		z M2507.445,1814.638c-0.961,3.498-2.493,6.877-4.088,10.156c-12.401,25.503-28.859,48.303-47.064,69.888
		c-7.075,8.389-14.58,16.418-21.964,24.544c-1.99,2.19-3.934,4.618-7.285,4.837c-2.597-0.179-3.573-1.688-2.86-4.028
		c0.367-1.204,1.316-2.282,2.162-3.282c10.949-12.953,21.564-26.213,32.998-38.726c11.924-13.05,22.126-27.387,32.622-41.498
		c5.021-6.751,6.839-15.044,7.415-23.475c0.185-2.704,0.205-5.85,4.154-5.223
		C2507.273,1808.424,2508.321,1811.447,2507.445,1814.638z M2720.725,833.105c28.898-16.953,57.775-33.942,86.67-50.899
		c1.722-1.01,3.54-1.857,5.332-2.742c2.246-1.109,4.625-1.675,6.198,0.82c1.341,2.126,1.07,4.505-0.561,6.524
		c-3.095,3.831-7.777,5.151-11.995,6.903c-19.099,7.935-37.35,17.432-54.77,28.557c-6.497,4.149-12.494,8.664-16.185,15.833
		c-2.187,4.248-2.68,4.032-12.664,4.139c-2.611-0.648-7.16,1.971-8.246-2.483C2713.516,835.702,2717.923,834.749,2720.725,833.105z
		 M2617.067,912.597c-8.01,5.899-15.654,12.307-23.308,18.673c-4.575,3.806-9.34,5.679-15.305,3.77
		c-0.025-4.201,3.08-5.393,5.231-7.242c18.894-16.241,39.23-30.568,59.676-44.736c8.166-5.659,16.542-11.019,24.924-16.356
		c2.205-1.404,4.699-2.733,7.221-3.169c3.3-0.571,5.814,1.19,6.507,4.678c0.606,3.058-0.701,4.866-3.762,5.965
		C2655.064,882.507,2636.504,898.283,2617.067,912.597z M2891.189,835.814c-3.463,10.186-6.276,21.133-9.104,32.091
		c-6.064,23.501-12.538,46.896-18.746,70.36c-5.87,22.183-11.796,44.353-17.365,66.61c-6.294,25.156-12.23,50.403-18.299,75.615
		c-3.114,12.938-6.299,25.86-9.235,38.838c-3.738,16.525-8.041,32.912-11.134,49.602c-1.994,10.762-5.031,21.352-7.489,32.049
		c-3.354,14.599-6.289,29.269-9.126,43.964c-0.998,5.167-3.711,6.962-8.967,7.095c-34.788,0.88-67.587,10.042-99.065,24.457
		c-1.498,0.686-3.012,1.535-4.6,1.779c-2.38,0.366-3.982-0.759-3.271-3.395c0.692-2.561,1.661-5.067,2.719-7.506
		c15.034-34.675,29.425-69.625,45.332-103.928c6.973-15.036,13.333-30.361,20.538-45.307c3.245-6.732,2.781-14.307,3.814-21.514
		c0.553-3.864-2.072-7.032-4.399-9.787c-11.243-13.307-24.891-24.015-38.343-34.921c-3.223-2.612-6.191-1.901-8.827,0.865
		c-2.711,2.847-5.704,3.513-8.834,1.047c-2.998-2.362-1.509-5.204-0.628-8.167c2.945-9.909,5.598-20.226,4.683-30.385
		c-1.11-12.313-5.872-23.794-15.154-32.802c-10.39-10.082-12.109-9.304,1.651-19.627c42.297-31.732,87.112-59.693,132.311-87.009
		c25.016-15.118,50.634-29.236,75.951-43.857c1.465-0.846,2.836-2.08,4.515-1.149
		C2891.829,831.785,2891.592,833.591,2891.189,835.814z"/>
	<path fill-rule="evenodd" clip-rule="evenodd" fill="#175D73" d="M2257.438,961.617c-5.925-9.332-14.361-16.568-24.711-21.107
		c-3.654-1.603-6.928-0.936-10.222,1.574c-6.53,4.977-6.646,4.825-12.295-0.548c-5.815-5.532-10.964-4.935-15.256,1.88
		c-12.58,19.971-23.861,40.655-33.992,61.973c-4.703,9.896-9.426,19.779-13.033,30.143c-0.673,1.934-1.337,4.37-3.625,3.978
		c-3.397-0.583-1.83-3.611-1.822-5.716c0.004-0.973,0.499-1.933,0.64-2.918c3.307-23.054,12.908-43.845,23.147-64.404
		c8.913-17.895,20.064-34.439,30.929-51.154c4.681-7.201,7.429-15.071,6.662-23.628c-1.37-15.283-5.887-29.348-17.859-39.981
		c-3.238-2.875-6.455-5.776-9.744-8.592c-12.639-10.822-26.731-17.126-43.838-14.026c-2.733,0.496-5.23-0.62-7.807-1.297
		c-19.531-5.134-34.724,1.056-44.917,18.452c-10.581,18.06-21.191,36.117-30.377,54.939
		c-20.221,41.437-37.071,83.929-42.042,130.359c-2.468,23.056,6.016,40.833,23.595,54.993c9.599,7.732,20.991,11.073,32.755,13.792
		c18.049,4.17,36.111,5.884,54.419,1.99c10.452-2.224,10.747-1.963,9.458,8.44c-0.328,2.644-0.839,5.272-1.034,7.925
		c-0.376,5.128,0.617,9.985,3.694,14.209c5.251,7.21,11.977,12.469,20.679,14.861c10.318,2.835,20.791,4.73,31.548,4.658
		c2,0,4,0.015,5.999-0.002c12.411-0.106,13.16-0.754,10.581-13.314c-1.573-7.667-1.561-15.247-0.62-22.861
		c3.756-30.404,14.318-58.548,28.29-85.625c9.016-17.47,19.443-34.061,30.438-50.284
		C2261.551,973.729,2260.916,967.094,2257.438,961.617z M2193.314,982.666c-8.54,21.863-19.426,42.799-25.894,65.486
		c-0.997,3.5-2.486,6.865-3.851,10.252c-0.642,1.592-1.716,2.835-3.672,2.814c-3.315-0.137-4.918-4.142-3.257-8.832
		c2.216-6.256,4.46-12.517,7.045-18.626c6.963-16.456,14.104-32.836,21.202-49.234c0.659-1.521,1.6-2.921,2.258-4.442
		c1.34-3.095,3.007-7.31,6.736-5.581C2198.326,976.564,2194.451,979.756,2193.314,982.666z"/>
	<path fill-rule="evenodd" clip-rule="evenodd" fill="#185E74" d="M3323.693,2102.24c0-40.309,0-80.617,0.002-120.927
		c0-1.997-0.045-3.999,0.061-5.991c0.171-3.188,1.985-4.878,5.121-4.898c7.993-0.053,16.025-0.473,23.968,0.17
		c6.282,0.508,9.821,5.188,11.32,11.057c1.654,6.479,2.125,13.135,2.084,19.826c-0.01,1.602-0.219,3.508,1.708,4.272
		c1.824,0.724,3.136-0.491,4.326-1.666c5.916-5.843,12.021-11.424,18.691-16.459c25.516-19.263,53.925-24.281,84.981-18.694
		c29.383,5.286,48.095,23.405,58.726,49.786c6.572,16.308,8.623,34.061,8.59,51.87c-0.096,51.303-0.011,102.605-0.013,153.907
		c-0.001,10.386-0.455,10.884-10.472,10.969c-8.993,0.076-17.988,0.08-26.982,0.001c-9.242-0.08-9.673-0.489-9.688-9.516
		c-0.035-19.988,0.021-39.976,0.026-59.964c0.009-32.979,0.004-65.96,0.01-98.94c0.002-9.361-1.131-18.427-3.926-27.521
		c-7.416-24.128-24.281-34.188-47.523-35.354c-22.726-1.141-42.36,7.332-59.32,21.957c-15.391,13.273-15.195,13.499-15.19,33.855
		c0.013,54.967,0.027,109.934,0.036,164.9c0.002,10.252-0.246,10.522-10.694,10.584c-8.994,0.054-17.99,0.113-26.983-0.014
		c-8.388-0.119-8.858-0.646-8.861-9.286c-0.011-36.978,0.023-73.955,0.041-110.933c0.002-4.33,0-8.661,0-12.992
		C3323.719,2102.24,3323.706,2102.24,3323.693,2102.24z"/>
	<path fill-rule="evenodd" clip-rule="evenodd" fill="#185E74" d="M3877.494,2102.734c-0.003-40.666-0.012-81.331,0.004-121.997
		c0.004-9.915,0.358-10.29,9.904-10.423c5.332-0.074,10.669-0.103,15.999,0.035c9.189,0.236,13.284,3.493,15.089,12.669
		c1.025,5.208,1.127,10.593,1.775,15.883c0.299,2.438-1.139,5.77,2.379,6.839c2.675,0.814,4.098-1.576,5.663-3.287
		c5.872-6.414,12.7-11.64,19.757-16.715c24.424-17.565,51.432-21.853,80.626-17.179c17.144,2.745,31.672,10.206,43.211,22.842
		c13.842,15.156,21.654,33.359,23.505,53.826c0.867,9.606,0.914,19.308,0.932,28.966c0.088,49.666,0.046,99.331,0.049,148.996
		c0.001,2-0.027,4,0.008,6c0.07,4.111-1.979,6.217-6.039,6.233c-11.333,0.045-22.665,0.003-33.998,0.04
		c-4.117,0.013-6.159-1.997-6.214-6.066c-0.031-2.333-0.001-4.667-0.001-7c0.009-51.332,0.134-102.664-0.062-153.995
		c-0.046-12.262-0.604-24.563-6.093-36.048c-9.001-18.838-24.493-27.313-44.645-28.227c-21.225-0.963-39.872,6.156-56.241,19.31
		c-18.734,15.055-18.632,15.181-18.63,39.111c0.005,53.665,0.008,107.331,0.012,160.995c0,2,0.009,4-0.013,6
		c-0.037,3.56-1.751,5.775-5.386,5.805c-11.997,0.094-23.995,0.078-35.992,0.018c-3.598-0.02-5.479-2.038-5.586-5.637
		c-0.049-1.664-0.011-3.332-0.011-4.998C3877.497,2184.064,3877.497,2143.399,3877.494,2102.734z"/>
	<path fill-rule="evenodd" clip-rule="evenodd" fill="#175D73" d="M3663.916,2043.837c0.003,59.996,0.003,119.992,0.003,179.987
		c0.001,1.667-0.039,3.335,0.017,5c0.153,4.56-1.927,6.708-6.582,6.666c-10.999-0.102-21.999-0.094-32.997-0.021
		c-5.18,0.033-7.159-2.568-6.907-7.491c0.153-2.993,0.09-5.998,0.09-8.998c-0.006-118.991-0.016-237.983-0.025-356.976
		c0-1.999-0.039-4,0.014-5.998c0.096-3.681,2.143-5.462,5.706-5.48c11.665-0.06,23.33-0.047,34.995-0.091
		c3.669-0.014,5.563,1.767,5.651,5.416c0.057,2.332,0.033,4.666,0.033,6.999C3663.914,1923.179,3663.914,1983.508,3663.916,2043.837
		z"/>
	<path fill-rule="evenodd" clip-rule="evenodd" fill="#195F75" d="M3796.587,2103.093c0.001,40.274,0.001,80.55,0,120.824
		c0,1.997,0.035,3.995-0.033,5.99c-0.125,3.655-2.187,5.474-5.72,5.493c-11.648,0.065-23.298,0.059-34.947,0.045
		c-3.6-0.005-5.541-1.908-5.734-5.48c-0.108-1.991-0.035-3.992-0.035-5.989c0-80.55,0-161.1,0.006-241.649
		c0.001-2.328-0.019-4.661,0.111-6.983c0.178-3.159,1.961-4.933,5.104-4.948c11.98-0.059,23.961-0.082,35.941,0.02
		c3.658,0.031,5.271,2.334,5.289,5.863c0.011,1.997,0.018,3.994,0.018,5.991C3796.586,2022.543,3796.586,2062.818,3796.587,2103.093
		z"/>
	<path fill-rule="evenodd" clip-rule="evenodd" fill="#195F75" d="M3773.684,1920.499c-18.533,1.904-33.419-16.501-33.027-32.469
		c0.478-19.523,15.136-33.137,32.555-33.557c19.122-0.461,33.953,16.237,34.231,34.168
		C3807.658,1902.57,3792.642,1922.736,3773.684,1920.499z"/>
	<path fill-rule="evenodd" clip-rule="evenodd" fill="#C6D4D6" d="M930.188,1318.109c-3.632,20.322-10.841,39.699-15.777,59.678
		c-5.018,20.311-11.926,40.147-15.24,60.888c-0.087,0.543-0.799,0.985-1.189,1.44c-1.391,0.677-1.959-0.39-2.075-1.246
		c-1.557-11.576-1.766-23.217,1.909-34.377c6.443-19.566,12.749-39.148,18.408-58.974c3.47-12.158,6.111-24.513,9.722-36.624
		c2.666-8.941,4.472-18.05,4.172-27.523c-0.295-9.319,0.163-18.664-0.161-27.981c-0.232-6.665-0.179-12.461,7.782-15.087
		c3.109-1.026,4.149-4.719,4.823-8.231c3.945-20.578,8.381-41.064,12.176-61.669c3.07-16.663,5.103-33.518,8.251-50.164
		c4.951-26.176,7.756-52.653,11.587-78.982c2.297-15.784,3.27-31.756,5.082-47.616c4.89-42.804,4.29-85.765,4.096-128.73
		c-0.095-21.073-3.434-41.751-6.119-62.55c-1.712-13.255-5-26.118-8.146-39.006c-2.195-8.992-5.883-17.616-8.827-26.43
		c-0.513-1.536-0.639-3.202-0.944-4.808c7.647,8.123,8.427,19.192,11.946,29.001c1.741,4.855,2.792,10.198,4.09,15.338
		c4.394,17.395,5.974,35.248,8.546,52.951c2.363,16.265,1.567,32.544,1.809,48.821c0.085,5.704,2.462,11.063,1.812,16.813
		c-2.473,21.874-0.779,43.916-2.321,65.776c-1.139,16.151-3.368,32.317-4.881,48.456c-1.363,14.53-2.278,29.116-4.726,43.499
		c-3.391,19.923-5.48,40.024-8.76,59.974c-2.52,15.332-5.821,30.58-7.45,46.104c-0.963,9.181-4.507,18.084-5.547,27.264
		c-1.796,15.859-7.149,31.006-8.583,46.917c-0.432,4.788-3.043,9.168-7.91,10.691c-5.009,1.567-5.607,4.891-5.515,9.214
		c0.142,6.662-0.09,13.332,0.075,19.993c0.374,15.021,0.036,29.918-5.607,44.184C925.188,1318.927,927.524,1318.85,930.188,1318.109
		z"/>
	<path fill-rule="evenodd" clip-rule="evenodd" fill="#C6D4D6" d="M978.191,1174.083c-6.597,19.081-13.34,38.111-19.748,57.255
		c-6.31,18.854-12.104,37.879-18.472,56.712c-3.381,9.999-4.411,20.765-9.814,30.096c-1.306-5.963,1.963-10.982,3.463-16.342
		c3.459-12.361,7.47-24.616,10.964-36.897c4.229-14.865,11.348-28.831,13.663-44.241c0.146-0.968,0.499-1.938,0.924-2.826
		c6.27-13.111,10.694-26.919,15.41-40.618C975.155,1175.554,976.49,1174.557,978.191,1174.083z"/>
	<path fill-rule="evenodd" clip-rule="evenodd" fill="#FFFFFF" d="M748.41,576.116c12.238-12.127,26.214-9.83,40.802-5.411
		c33.513,10.152,57.073,32.03,73.328,62.202c13.84,25.69,21.164,53.47,26.313,82.181c10.339,57.641,8.376,115.553,4.816,173.401
		c-2.042,33.178-6.141,66.276-10.753,99.29c-4.561,32.643-10.318,65.071-15.477,97.602c-3.488,22-8.459,43.764-12.758,65.636
		c-0.759,3.859-2.767,7.123-6.403,8.363c-5.7,1.943-6.234,6.014-6.124,11.05c0.213,9.661-0.208,19.341,0.17,28.992
		c0.438,11.175-1.956,21.771-4.898,32.423c-3.709,13.435-6.017,27.298-10.365,40.504c-5.714,17.355-10.093,35.165-17.156,52.063
		c-1.316,3.147-2.093,6.204-2.207,9.605c-0.413,12.318-1.553,24.636-1.408,36.941c0.155,13.087-4.354,24.747-8.964,36.525
		c-3.511,8.972-7.113,17.916-10.28,27.011c-2.752,7.904-2.293,8.709,4.896,12.533c15.589,8.296,30.558,17.598,44.723,28.12
		c8.017,5.955,15.511,12.528,20.713,21.365c2.192,3.724,2.924,7.491,1.94,11.47c-1.197,4.84-2.517,9.715-4.459,14.288
		c-2.99,7.042-10.484,10.642-19.264,9.039c-10.469-1.91-20.824-4.444-31.222-6.736c-6.502-1.434-12.994-2.918-19.489-4.381
		c-4.672-1.053-7.929,0.402-8.946,5.333c-0.626,3.037-1.483,6.121-4.169,7.698c-6.889,4.046-6.195,10.033-3.586,15.645
		c2.879,6.193,1.67,11.486-0.904,17.146c-1.445,3.178-3.424,5.914-6.354,7.469c-4.15,2.203-5.08,5.491-5.384,9.812
		c-1.983,28.239-7.283,56.098-9.623,84.326c-1.647,19.868-7.11,39.192-11.054,58.729c-5.326,26.391-10.838,52.747-15.862,79.205
		c-3.22,16.958-6.292,34.013-10.239,50.864c-3.491,14.901-5.595,30.09-8.648,45.1c-4.973,24.439-8.844,49.107-13.011,73.707
		c-5.057,29.854-10.48,59.659-14.756,89.627c-4.983,34.923-9.461,69.938-13.1,105.024c-3.022,29.141-4.945,58.416-6.55,87.676
		c-1.447,26.375,0.843,52.58,6.558,78.434c0.512,2.317,1.477,4.322,2.553,6.416c2.738,5.325,1.98,5.892-3.726,8.521
		c-9.277,4.275-17.052,3.203-24.459-4.098c-4.949-4.876-10.703-8.963-16.262-13.186c-5.874-4.46-7.719-3.736-9.17,3.206
		c-0.272,1.302-0.429,2.632-0.567,3.957c-0.494,4.731-3.216,6.065-7.644,5.387c-11.5-1.763-19.328-7.911-23.817-18.718
		c-4.108-9.893-6.744-20.21-8.39-30.662c-7.174-45.566-8.417-91.455-6.493-137.472c0.654-15.647,1.844-31.285,2.04-46.937
		c0.367-29.352,2.608-58.586,5.19-87.779c4.488-50.752,8.71-101.523,14.28-152.191c3.054-27.776,6.884-55.484,9.292-83.36
		c2.29-26.508,6.568-52.844,9.941-79.259c1.898-14.867,3.473-29.781,5.659-44.606c3.544-24.035,5.522-48.281,9.954-72.2
		c1.271-6.855,1.494-13.899,2.403-20.83c0.523-3.991-1.039-6.352-4.735-7.595c-7.035-2.364-13.549-3.544-21.192-0.26
		c-18.925,8.13-38.378,15.022-57.582,22.51c-29.135,11.361-57.781,23.865-85.981,37.37c-23.403,11.207-46.385,23.207-68.085,37.518
		c-13.932,9.188-27.216,19.127-37.874,32.183c-5.352,6.556-8.749,13.863-10.764,22.163c-3.686,15.175-8.106,30.172-12.281,45.226
		c-2.926,10.551-6.055,21.045-8.915,31.613c-5.209,19.249-11.007,38.315-17.253,57.251c-6.976,21.148-14.114,42.24-23.525,62.466
		c-3.643,7.829-7.429,15.579-13.405,22.062c-3.709,4.023-7.484,5.713-13.219,4.445c-21.109-4.668-42.324-8.854-63.507-13.182
		c-3.985-0.814-7.681-2.067-10.63-5.074c-17.508-17.852-31.84-37.508-36.274-62.91c-1.326-7.595-2.01-15.112-0.396-22.795
		c1.277-6.082-0.023-7.156-6.085-5.68c-3.23,0.787-6.416,1.799-9.558,2.893c-2.253,0.784-4.582,1.533-6.837,0.812
		c-14.962-4.789-30.774-5.657-45.819-10.06c-8.233-2.41-8.169-2.295-6.578-10.956c0.785-4.272,1.916-8.415,3.157-12.57
		c1.143-3.829-0.93-5.931-4.76-5.254c-3.236,0.571-6.314,2.006-9.483,2.991c-3.877,1.206-6.481-0.139-7.729-4.029
		c-0.102-0.316-0.185-0.641-0.292-0.955c-4.648-13.603-4.658-13.624,8.874-19.945c8.436-3.941,16.915-7.791,25.356-11.722
		c1.275-0.593,2.692-1.046,3.796-0.294c1.591,1.085,1.312,2.91,0.835,4.542c-0.372,1.272-0.832,2.532-1.396,3.731
		c-0.981,2.087-2.698,4.288-0.251,6.264c2.133,1.722,4.531,0.373,6.6-0.53c6.124-2.675,11.71-6.299,17.073-10.259
		c20.509-15.143,37.458-33.973,54.524-52.682c1.634-1.791,3.398-3.757,1.203-6.006c-2.566-2.63-5.077-0.937-6.788,1.222
		c-10,12.608-24.215,18.288-38.562,23.798c-2.128,0.817-4.699,2.593-6.302,0.107c-1.362-2.112,0.412-4.496,1.962-6.235
		c1.539-1.728,3.29-3.313,5.139-4.708c45.242-34.112,80.698-77.001,111.521-124.08c20.039-30.607,37.704-62.564,53.637-95.445
		c13.032-26.894,25.827-53.976,35.813-82.163c6.76-19.08,18.001-35.429,28.467-52.317c21.712-35.036,40.843-71.443,58.811-108.517
		c11.583-23.901,22.291-48.187,33.09-72.434c6.214-13.951,11.692-28.229,17.519-42.352c1.015-2.458,2.375-4.804,3.126-7.335
		c1.538-5.184,4.876-5.357,9.363-4.267c10.668,2.593,10.676,2.46,13.149-7.82c1.556-6.465,3.204-12.908,4.791-19.366
		c1.668-6.791,0.661-8.439-5.953-9.61c-1.636-0.29-3.339-0.217-4.964-0.547c-6.698-1.36-7.542-2.909-5.419-9.622
		c3.716-11.755,7.532-12.672,17.341-4.695c3.41,2.773,5.804,8.991,10.982,6.991c4.606-1.779,2.184-7.802,3.121-11.841
		c3.273-14.107,0.715-28.525,1.491-42.789c0.153-2.805-2.191-6.593,1.05-8.213c3.274-1.637,4.866,2.473,7.146,4.128
		c1.073,0.778,1.931,1.847,2.985,2.656c4.035,3.099,5.216,2.915,7.009-2.025c4.982-13.731,9.742-27.544,14.559-41.335
		c2.299-6.582,4.378-13.244,6.833-19.767c2.376-6.314,5.715-7.693,11.549-4.248c3.959,2.339,7.254,5.788,10.913,8.655
		c4.405,3.452,5.915,2.952,7.605-2.363c5.862-18.436,5.834-18.402-8.897-30.561c-5.391-4.449-10.634-9.077-15.906-13.669
		c-2.732-2.38-3.731-4.62-1.799-8.599c22.046-45.403,43.355-91.175,69.652-134.377c5.201-8.544,10.938-16.687,17.261-24.407
		c2.307-2.816,5.123-5.228,7.8-7.723c1.796-1.674,3.996-2.887,6.213-1.018c1.788,1.507,1.015,3.702,0.34,5.576
		c-0.562,1.56-1.498,2.983-2.068,4.541c-0.955,2.612-1.559,5.528,1.481,7.006c3.23,1.57,6.75,1.443,8.71-2.155
		c5.234-9.613,10.236-19.353,15.33-29.042c6.955-15.145,17.912-27.763,26.465-41.902c14.316-23.667,31.101-45.528,48.911-66.643
		c2.683-3.18,7.685-8.108,4.002-10.9c-5.083-3.854-7.62,3.323-9.973,6.632c-10.805,15.191-21.151,30.707-30.844,46.647
		c-1.895,3.116-3.749,6.348-6.605,8.725c-2.505,2.084-5.431,2.658-8.342,0.963c-2.672-1.555-3.146-4.226-2.463-6.999
		c3.599-14.636,7.232-28.77,17.282-41.271c11.791-14.667,21.691-30.871,34.436-44.915
		C741.937,581.612,744.438,578.125,748.41,576.116z"/>
	<path fill-rule="evenodd" clip-rule="evenodd" fill="#FFFFFF" d="M2698.422,457.097c-9.123-9.253-18.052-18.757-27.777-27.346
		c-42.15-37.222-91.097-58.305-147.65-59.664c-26.975-0.648-54.002-0.167-80.982,0.625c-36.553,1.072-73.193,0.012-109.447,7.334
		c-32.601,6.584-65.67,10.825-98.326,17.158c-30.363,5.888-60.67,12.342-90.604,20.083c-27.667,7.155-55.381,14.445-82.203,24.561
		c-6.531,2.463-12.983,5.151-19.582,7.414c-4.416,1.514-6.893-0.388-5.7-4.764c2.73-10.014,3.325-20.367,5.496-30.444
		c4.273-19.836,8.572-39.669,13.203-59.423c1.211-5.167,1.406-8.402-4.493-11.041c-5.376-2.404-5.458-7.018-1.526-11.39
		c1.329-1.478,2.966-2.675,4.432-4.034c16.774-15.553,30.928-33.102,39.786-54.368c6.421-15.417,7.835-20.068-5.752-34.912
		c-5.398-5.898-12.012-10.492-18.786-14.76c-14.132-8.902-29.234-15.861-44.582-22.351c-11.423-4.831-11.372-4.895-20.395,4.061
		c-14.023,13.918-25.246,30.054-36.107,46.392c-35.73,53.746-65.242,111.044-95.383,167.978c-3.961,7.481-6.032,15.252-6.152,23.8
		c-0.201,14.335-5.681,27.218-12.321,39.632c-11.394,21.302-28.059,37.923-47.297,52.024c-33.33,24.427-70.775,40.731-109.49,54.363
		c-15.053,5.3-30.976,8.697-45.224,15.599c-34.096,16.518-67.72,34.075-101.017,52.164c-67.555,36.7-133.773,75.687-196.976,119.567
		c-48.995,34.016-96.063,70.459-138.567,112.495c-13.031,12.888-25.697,26.124-37.485,40.172c-2.558,3.049-5.295,6.063-4.587,10.608
		c1.517,9.739,4.791,18.527,12.108,25.61c9.955,9.635,22.172,14.271,35.336,17.376c27.996,6.602,56.371,4.027,84.645,3.81
		c5.819-0.045,6.61-1.154,5.79-7.615c-0.745-5.871,0.517-11.069,2.772-16.444c5.93-14.134,15.657-25.417,26.21-36.108
		c28.218-28.586,60.811-51.673,93.938-74.006c56.299-37.956,114.852-72.215,174.239-105.063
		c25.322-14.005,50.752-27.822,76.271-41.466c25.225-13.486,50.639-26.618,75.928-39.985c3.082-1.629,6.207-2.428,9.603-1.92
		c3.262,0.488,4.575,2.302,3.548,5.656c-3.983,13.007-7.901,26.034-11.853,39.05c-5.789,19.064-11.734,38.083-17.34,57.201
		c-6.63,22.608-13.214,45.236-19.331,67.986c-2.851,10.604-5.857,21.15-8.902,31.697c-3.777,13.082-7.008,26.321-10.557,39.47
		c-3.117,11.55-5.903,23.178-9.341,34.657c-4.182,13.963-7.364,28.225-10.988,42.356c-3.057,11.918-6.79,23.712-9.014,35.783
		c-2.534,13.754-6.888,27.005-9.852,40.639c-5.293,24.347-12.233,48.333-17.626,72.661c-3.742,16.879-7.584,33.732-11.459,50.581
		c-3.205,13.935-6.302,27.897-9.251,41.887c-3.499,16.596-6.768,33.239-10.175,49.854c-3.274,15.967-6.761,31.891-9.855,47.892
		c-3.344,17.29-6.276,34.66-9.511,51.972c-3.36,17.986-7.745,35.833-10.072,53.947c-2.504,19.492-6.652,38.678-9.683,58.058
		c-3.497,22.353-6.955,44.741-10.623,67.08c-3.987,24.286-6.158,48.868-9.993,73.184c-3.999,25.354-6.678,50.868-9.518,76.331
		c-3.91,35.068-7.43,70.196-10.51,105.37c-4.099,46.813-6.613,93.712-9.777,140.575c-1.999,29.605-1.846,59.289-2.455,88.943
		c-1.932,34.302-0.986,68.636-1.317,102.957c-0.049,5.066,1.519,9.031,4.456,12.792c7.164,9.174,14.275,18.389,21.493,27.52
		c7.793,9.858,9.804,11.025,20.946,5.174c12.065-6.336,22.596-6.601,34.307,0.936c8.55,5.502,17.549,1.625,22.665-7.388
		c2.972-5.235,3.041-10.873,2.936-16.504c-0.917-49.034,1.807-97.857,6.755-146.653c3.025-29.822,7.055-59.511,10.64-89.247
		c4.14-34.347,10.244-68.457,15.583-102.656c0.924-5.918,2.69-11.722,3.371-17.658c2.352-20.509,6.841-40.652,10.159-60.994
		c2.947-18.063,7.204-35.928,9.698-54.043c2.409-17.493,6.125-34.746,9.456-52.015c3.462-17.947,6.986-35.948,10.396-53.9
		c5.213-27.444,10.918-54.798,16.006-82.27c4.78-25.808,10.655-51.412,15.968-77.122c4.24-20.516,7.995-41.14,12.653-61.559
		c3.549-15.554,7.096-31.163,9.979-46.789c5.746-31.139,14.549-61.447,22.59-91.959c7.279-27.619,15.74-54.924,23.558-82.403
		c8.091-28.436,15.853-56.966,24.099-85.356c7.503-25.832,15.554-51.503,23.19-77.297c5.755-19.44,10.912-39.062,16.912-58.423
		c10.129-32.687,20.714-65.233,31.11-97.838c7.866-24.67,15.554-49.399,23.661-73.99c6.549-19.864,13.552-39.58,20.455-59.327
		c4.166-11.916,8.151-23.915,12.875-35.611c10.317-25.548,20.071-51.365,32.333-76.063c6.779-13.654,13.34-27.616,24.534-38.537
		c2.375-2.317,4.664-4.492,8.05-5.631c21.747-7.317,43.402-14.905,65.109-22.34c16.683-5.714,33.299-11.648,50.122-16.919
		c25.069-7.854,50.258-15.331,75.463-22.742c20.113-5.913,40.142-12.277,60.536-17.033c33.675-7.853,67.192-16.355,101.408-22.01
		c22.71-3.753,45.465-6.695,68.311-8.803c50.658-4.673,100.367,0.685,148.934,16.098c20.656,6.556,40.736,14.5,59.888,24.665
		c20.248,10.745,20.205,10.825,41.665,2.523C2704.075,464.333,2704.404,463.165,2698.422,457.097z"/>
	<path fill-rule="evenodd" clip-rule="evenodd" fill="#FFFFFF" d="M1542.997,1244.718c-1.243-6.49-6.3-12.281-9.813-18.292
		c-1.653-2.831-4.127-3.423-6.607-1.024c-3.385,3.273-6.487,2.677-9.607-0.245c-3.541-3.316-7.531-3.743-12.044-2.262
		c-8.524,2.799-8.549,2.724-12.735-4.516c-3.17-5.482-4.058-5.844-8.896-1.875c-12.098,9.928-24.888,18.904-37.8,27.694
		c-18.147,12.353-36.452,24.477-57.175,32.312c-7.183,2.716-10.894,1.142-12.27-6.259c-1.091-5.868-1.625-11.892-1.83-17.865
		c-0.791-23.026,1.284-45.953,3.249-68.843c2.077-24.191,6.461-48.204,2.495-72.654c-3.031-18.679-7.934-36.453-20.857-50.916
		c-13.386-14.982-30.366-22.618-50.108-26.454c-16.147-3.138-28.76,1.755-40.527,11.361c-7.482,6.109-14.349,12.956-20.66,20.294
		c-26.827,31.192-47.673,66.391-67.574,102.137c-15.012,26.964-29.112,54.424-42.637,82.189
		c-12.938,26.563-25.479,53.308-37.771,80.166c-10.214,22.318-19.892,44.885-29.656,67.407
		c-10.43,24.061-20.849,48.128-30.963,72.321c-9.857,23.58-19.313,47.329-28.984,70.987c-0.625,1.53-1.468,3.007-2.425,4.356
		c-1.233,1.738-2.965,2.744-5.156,1.934c-2.178-0.806-2.915-2.66-2.739-4.812c0.469-5.745,1.95-11.582,5.523-15.801
		c5.917-6.986,6.98-15.293,4.323-22.517c-4.048-11.008-2.086-20.68,1.73-30.733c1.414-3.723,2.872-7.435,4.131-11.21
		c12.295-36.868,24.386-73.806,36.877-110.606c9.287-27.36,18.812-54.634,27.731-82.122c7.681-23.671,16.239-47.057,24.315-70.6
		c8.837-25.76,17.526-51.571,26.383-77.324c1.317-3.83,1.337-6.929-1.934-9.904c-9.352-8.506-17.924-17.831-28.195-25.38
		c-4.352-3.198-8.207-4.204-12.768-1.497c-3.865,2.294-6.764,2.245-10.697-0.854c-7.381-5.816-12.071-4.789-17.778,2.386
		c-1.447,1.819-2.734,3.771-4.033,5.701c-26.192,38.921-43.013,82.262-59.166,125.892c-5.523,14.919-10.614,30.004-15.568,45.123
		c-5.694,17.376-11.135,34.836-16.462,52.328c-3.964,13.019-7.621,26.131-11.321,39.228c-3.162,11.194-6.263,22.406-9.261,33.646
		c-3.592,13.463-7.061,26.959-10.556,40.448c-3.168,12.229-6.975,24.345-9.269,36.738c-2.547,13.755-6.412,27.182-9.827,40.661
		c-6.206,24.498-11.112,49.283-17.401,73.764c-6.032,23.479-9.646,47.57-15.214,71.182c-6.147,26.063-6.886,52.042-1.758,78.257
		c2.851,14.571,7.237,28.523,18.421,39.044c10.798,10.158,23.004,17.872,38.594,12.894c6.415-2.049,11.529-2.148,16.657,2.036
		c6.28,5.125,12.621,4.215,19.568,1.059c13.336-6.06,22.294-16.773,30.41-28.168c21.009-29.492,34.272-62.943,47.784-96.185
		c9.992-24.58,17.125-50.21,27.345-74.758c12.381-29.74,25.356-59.211,38.426-88.642c11.316-25.48,22.992-50.806,34.738-76.093
		c12.444-26.789,24.923-53.567,37.814-80.143c15.222-31.381,30.778-62.602,46.425-93.773c10.28-20.479,21.001-40.737,31.458-61.127
		c1.363-2.657,3.043-4.51,6.198-3.519c2.741,0.861,2.972,3.277,2.854,5.728c-0.334,6.988-0.664,13.976-0.995,20.963
		c-0.317,13.745,1.317,27.199,4.325,40.636c8.26,36.902,29.483,63.224,63.293,79.82c19.388,9.517,40.244,13.635,61.218,17.431
		c3.625,0.656,7.295,0.53,10.892-0.537c21.077-6.257,41.697-13.653,60.956-24.435c23.135-12.949,43.656-29.195,61.45-48.866
		C1544.78,1264.03,1544.771,1253.984,1542.997,1244.718z"/>
	<path fill-rule="evenodd" clip-rule="evenodd" fill="#327F90" d="M748.41,576.116c-15.733,17.599-30.357,36.047-43.594,55.623
		c-6.358,9.403-13.037,18.413-13.368,30.471c-0.079,2.877-1.752,5.688-2.532,8.573c-0.767,2.84-0.383,5.488,2.801,6.52
		c2.88,0.933,4.893-0.23,6.565-2.949c6.793-11.044,13.73-22.003,20.792-32.877c5.251-8.087,10.74-16.021,16.206-23.966
		c1.504-2.187,3.097-4.393,5.025-6.186c2.478-2.305,5.606-2.212,8.305-0.458c2.805,1.823,1.927,4.599,1.054,7.207
		c-2.198,6.568-7.504,10.955-11.638,16.071c-24.253,30.017-46.858,61.18-66.968,94.136c-1.363,2.234-3.258,4.144-4.906,6.207
		c-1.289-5.364,2.741-8.701,5.144-12.428c8.587-13.324,17.553-26.404,26.27-39.419c-0.616-0.924-0.884-1.815-1.319-1.906
		c-10.903-2.292-12.184-4.492-8.888-15.612c1.317-4.442,3.071-8.774,2.664-13.575c-0.169-1.994,0.149-3.971,1.459-5.653
		c14.798-19.001,26.26-40.495,43.255-57.866c1.836-1.876,3.051-4.354,4.846-6.28C742.007,579.147,744.038,575.735,748.41,576.116z"
		/>
	<path fill-rule="evenodd" clip-rule="evenodd" fill="#175D73" d="M4378,2100c-4.971,3.244-10.514,3.528-16.252,3.519
		c-51.99-0.084-103.981-0.063-155.973-0.068c-12.16-0.001-12.709,0.475-11.336,12.259c1.891,16.227,4.978,32.08,13.086,46.658
		c10.943,19.678,26.551,32.632,49.016,37.254c30.074,6.188,57.337-0.61,82.891-16.527c1.693-1.055,3.348-2.183,5.09-3.15
		c9.678-5.372,14.568-4.395,21.613,4.278c0.629,0.774,1.135,1.646,1.74,2.438c9.827,12.842,9.971,13.021-2.993,23.158
		c-22.728,17.771-48.852,26.904-77.471,28.153c-15.557,0.679-31.229,1.542-46.716-2.388c-33.834-8.586-59.299-28.022-75.76-58.616
		c-10.692-19.871-15.213-41.683-16.883-64.116c-1.396-18.762-0.559-37.596,4.377-55.555c9.446-34.367,28.496-62.013,61.533-78.194
		c25.436-12.459,52.144-15.096,79.788-10.028c39.58,7.256,65.302,30.319,78.62,68.115c1.965,5.577,2.307,11.713,5.629,16.811
		C4378,2069.333,4378,2084.667,4378,2100z M4266.594,2073.94c16.639,0,33.275,0,49.913,0c4.325,0.001,8.655,0.108,12.978-0.018
		c7.978-0.232,9.179-1.641,8.139-9.705c-0.51-3.954-1.116-7.926-2.102-11.781c-3.16-12.352-7.97-23.876-17.262-33.065
		c-12.476-12.34-27.646-17.95-44.994-18.188c-24.217-0.333-45.039,6.927-60.38,26.739c-9.185,11.861-13.312,25.8-16.654,40.023
		c-1.108,4.713,0.609,5.963,7.472,5.988c20.964,0.078,41.928,0.028,62.891,0.028
		C4266.594,2073.955,4266.594,2073.947,4266.594,2073.94z"/>
	<path fill-rule="evenodd" clip-rule="evenodd" fill="#FFFFFF" d="M3899.446,458.401c-19.358-21.273-40.433-40.724-65.13-55.574
		c-37.958-22.825-79.303-33.846-123.733-33.017c-39.987,0.746-79.978,1.498-119.97,1.755c-14.064,0.09-27.943,1.691-41.69,3.88
		c-38.116,6.069-76.218,12.343-114.12,19.607c-30.701,5.884-61.316,12.505-91.58,20.309c-28.001,7.22-56.016,14.671-83.184,24.839
		c-5.917,2.215-11.887,4.244-17.718,6.721c-4.985,2.117-6.984,0.39-6.343-4.812c0.244-1.969,1.072-3.861,1.387-5.827
		c4.614-28.916,10.96-57.47,17.979-85.88c1.081-4.373-0.504-6.351-4.517-8.4c-6.794-3.47-6.971-6.846-1.596-12.334
		c4.662-4.76,9.671-9.187,14.249-14.023c14.108-14.904,25.015-31.729,32.13-51.174c3.059-8.355,1.237-14.874-3.439-21.347
		c-6.341-8.775-14.78-15.255-23.841-20.964c-14.696-9.259-30.416-16.468-46.413-23.143c-9.561-3.99-9.443-4.061-17.144,3.333
		c-15.972,15.339-28.401,33.506-40.364,51.877c-34.465,52.93-63.798,108.794-92.894,164.775c-3.262,6.275-5.168,12.705-5.544,19.953
		c-0.803,15.449-5.467,29.87-13.054,43.481c-10.743,19.276-25.608,34.762-42.886,48.069
		c-34.436,26.522-73.825,43.339-114.363,57.849c-14.721,5.27-30.264,8.343-44.383,15.086c-21.283,10.164-42.307,20.915-63.1,32.053
		c-51.299,27.479-102.291,55.488-151.888,86.017c-64.996,40.008-127.874,82.9-185.608,132.981
		c-26.207,22.733-50.744,47.162-73.499,73.394c-4.776,5.505-5.687,11.046-3.489,17.483c1.067,3.129,2.373,6.218,3.928,9.135
		c8.013,15.041,22.018,21.846,37.439,25.968c29.765,7.958,60.216,5.395,90.5,4.936c4.176-0.063,6.276-2.565,5.395-6.567
		c-2.385-10.821,2.818-19.47,7.862-28.047c8.371-14.234,20.156-25.612,32.188-36.649c31.242-28.658,66.162-52.432,101.506-75.593
		c36.439-23.879,73.778-46.319,111.617-67.882c34.672-19.758,69.747-38.812,104.762-57.961
		c23.055-12.608,46.285-24.897,69.504-37.201c7.933-4.204,15.999-8.176,24.154-11.927c3.012-1.385,6.688-1.983,9.537,0.328
		c3.209,2.604,0.316,5.572-0.475,8.194c-7.57,25.132-15.564,50.141-22.863,75.351c-7.567,26.142-13.929,52.641-21.863,78.666
		c-8.438,27.677-15.574,55.694-23.226,83.573c-9.593,34.948-18.673,70.039-27.641,105.154c-6.899,27.02-13.446,54.133-19.853,81.274
		c-6.868,29.103-13.605,58.241-20.001,87.451c-7.112,32.485-13.789,65.065-20.623,97.611c-1.681,8.004-2.731,8.814-10.715,6.951
		c-10.076-2.352-20.145-4.601-30.608-3.723c-20.004,1.679-39.443,5.83-58.255,12.935c-40.775,15.4-77.605,37.93-113.137,62.738
		c-14.443,10.086-28.47,20.772-42.599,31.304c-2.888,2.152-5.709,3.622-9.104,1.656c-3.349-1.938-2.113-5.059-1.861-8.04
		c2.022-23.971,1.477-47.979-0.153-71.915c-0.584-8.579,0.493-16.596,2.884-24.583c2.951-9.861,6.161-19.648,9.422-29.414
		c7.258-21.735,16.195-42.819,24.759-64.056c9.195-22.805,18.964-45.353,28.887-67.841c12.468-28.258,24.488-56.725,37.609-84.675
		c3.857-8.216,4.684-16.52,5.899-25.01c0.558-3.897-1.404-7.147-3.828-9.984c-11.308-13.235-24.629-24.27-38.309-34.914
		c-2.316-1.803-5.029-3.164-7.115-0.745c-5.202,6.037-9.706,3.523-14.734-0.141c-5.075-3.699-11.095-5.567-16.982-2.903
		c-15.646,7.082-28.764,16.985-33.354,34.714c-0.946,3.654-2.531,6.839-4.371,9.992c-12.722,21.805-25.476,43.592-38.206,65.392
		c-33.178,56.812-68.453,112.306-105.059,166.956c-33.495,50.005-68.522,98.922-105.121,146.709
		c-2.642,3.449-5.454,6.665-9.184,9.064c-12.554,8.076-22.313,18.942-30.029,31.556c-3.491,5.706-7.777,10.772-11.455,16.306
		c-3.855,5.805-9.62,10.128-12.948,16.371c2.858,11.088-8.733,6.767-12.038,11.283c-0.195,0.268-0.418,0.521-0.651,0.757
		c-32.537,32.802-69.729,59.595-108.641,84.166c-2.321,1.077-4.521,2.349-6.445,4.055c0.007-0.003,0.014-0.007,0.021-0.01
		l-0.051,0.034c0.01-0.009,0.021-0.016,0.03-0.024c-14.72,6.865-27.275,15.976-32.302,32.897c-0.617-4.31,3.408-7.771-0.029-11.001
		c-2.928-2.752-5.284,0.738-7.719,2.087l0.046-0.031c-7.887,5.017-16.646,8.563-24.101,14.309c-6.679,2.117-7.354,1.966-7.775-3.501
		c-0.689-8.956-0.983-17.943-1.4-26.919c-0.138-2.967,0.339-6.095-2.953-7.887c-5.512-2.998-4.533-6.456-0.842-10.316
		c1.355-1.416,2.571-3.158,3.274-4.976c6.007-15.524,9.905-31.681,13.498-47.87c3.666-16.52,6.33-33.261,9.91-49.801
		c0.967-4.465,0.207-7.758-2.613-10.962c-1.538-1.746-3.057-3.512-4.507-5.331c-2.653-3.328-2.456-6.613,0.02-10.032
		c1.809-2.497,4.092-4.285,6.689-5.856c2.628-1.59,4.218-3.822,4.987-7.047c5.695-23.882,11.52-47.734,17.483-71.551
		c5.399-21.558,10.333-43.268,16.758-64.522c5.846-19.343,11.063-39.02,19.689-57.371c2.788-5.931,1.271-8.987-2.837-12.725
		c-11.058-10.062-24.098-16.284-38.154-20.868c-14.04-4.579-28.637-5.604-43.082-7.834c-10.628-1.641-17.952,1.979-24.399,9.711
		c-9.71,11.647-15.933,25.159-21.535,39.041c-4.498,5.846-4.406,13.098-6.063,19.812c-6.324,25.64-12.018,51.417-17.301,77.294
		c-5.827,28.538-11.751,57.061-17.709,85.568c-6.23,29.814-12.133,59.718-17.653,89.634c-6.008,32.564-12.052,65.158-17.789,97.786
		c-4.16,23.657-7.833,46.885-4.835,71.006c2.509,20.195,5.56,39.942,17.468,57.138c16.609,23.032,39.497,29.974,66.676,26.17
		c15.705-2.198,29.752-7.548,43.103-16.716c40.958-28.128,80.748-57.619,115.901-92.883c10.905-10.94,21.947-19.847,37.514-24.777
		c31.259-9.899,58.806-27.675,84.863-47.479c40.533-30.805,75.624-67.245,108.538-105.85c19.867-23.303,38.534-47.576,56.449-72.421
		c1.745-2.42,3.635-4.802,5.802-6.835c2.919-2.738,11.335-3.188,15.138-1.112c4.165,2.273,3.06,6.208,2.969,9.776
		c-0.136,5.328-0.459,10.652-0.524,15.98c-0.268,21.663-0.604,43.327-0.604,64.991c0,6.042-1.788,10.846-5.76,15.386
		c-6.568,7.508-12.6,15.48-18.951,23.18c-34.503,41.828-67.863,84.557-99.845,128.334
		c-38.426,52.597-75.651,105.989-104.334,164.784c-6.576,13.479-12.353,27.33-16.75,41.581c-3.609,11.699-4.713,24.121-6.818,36.243
		c-1.439,8.287,0.377,14.99,5.193,21.466c7.187,9.662,17.08,15.647,27.626,20.748c18.685,9.037,38.729,14.035,58.62,19.459
		c5.161,1.407,10.288,2.345,15.629,0.039c22.308-9.627,44.204-20.124,64.554-33.41c33.715-22.011,62.765-49.1,87.718-80.832
		c8.353-10.622,13.281-19.809,5.126-32.705c-6.459-10.215-8.939-21.206,0.328-31.745c0.993-1.129,0.898-3.163,1.482-4.712
		c1.934-5.123,3.988-5.998,7.538-1.948c3.667,4.185,5.986,2.869,8.845-0.265c2.469-2.707,5.041-5.324,7.42-8.107
		c12.553-14.687,23.475-30.603,34.837-46.189c4.416-6.059,6.958-12.592,8.176-20.043c3.808-23.309,7.569-46.649,12.377-69.764
		c5.418-26.045,11.267-52.053,20.019-77.238c5.124-14.742,10.763-29.335,19.802-42.293c4.45-6.381,9.464-12.588,17.095-14.657
		c5.676-1.54,9.14-4.589,12.469-9.011c14.297-18.984,31.046-35.67,49.248-50.877c35.161-29.377,74.229-52.655,115.052-73.147
		c6.838-3.433,13.709-6.8,20.567-10.191c1.787-0.883,3.775-2.085,5.531-0.514c1.678,1.501,1.002,3.694,0.521,5.646
		c-1.19,4.847-2.641,9.645-3.542,14.544c-3.729,20.286-7.313,40.6-10.913,60.91c-3.078,17.367-6.313,34.71-9.105,52.124
		c-3.58,22.329-6.78,44.72-10.154,67.083c-3.279,21.73-7.447,43.373-9.627,65.213c-2.514,25.185-6.525,50.158-9.428,75.283
		c-5.504,47.651-10.471,95.334-14.521,143.123c-2.139,25.228-3.644,50.493-5.229,75.761c-1.941,30.93-3.923,61.852-5.005,92.819
		c-1.722,49.303-1.749,98.631-1.761,147.959c-0.002,5.021,1.397,8.92,4.494,12.734c7.338,9.035,14.413,18.285,21.557,27.478
		c7.321,9.423,9.511,10.721,20.014,5.335c12.225-6.268,23.089-7.332,35.167,0.629c8.132,5.359,16.927,1.695,22.2-6.658
		c3.262-5.167,3.1-10.761,2.995-16.428c-1.17-63.092,3.72-125.813,11.579-188.348c1.162-9.248,3.286-18.413,3.884-27.686
		c1.438-22.328,6.047-44.203,9.116-66.281c3.112-22.381,7.029-44.698,10.534-67.029c4.8-30.576,10.711-60.956,15.343-91.561
		c3.932-25.979,9.252-51.752,14.169-77.576c5.474-28.745,11.473-57.393,16.71-86.18c5.119-28.141,11.128-56.107,16.619-84.168
		c3.377-17.264,6.996-34.553,10.875-51.756c7.168-31.783,13.479-63.76,20.106-95.663c3.989-19.201,7.372-38.542,12.571-57.469
		c4.931-17.948,10.286-35.779,15.292-53.707c7.683-27.512,15.146-55.084,22.863-82.586c3.947-14.066,8.329-28.009,12.368-42.05
		c5.23-18.19,10.242-36.442,15.484-54.629c3.867-13.416,7.99-26.757,11.933-40.152c5.063-17.201,9.659-34.553,15.195-51.6
		c6.06-18.657,11.231-37.575,17.495-56.182c8.039-23.879,14.242-48.371,22.032-72.34c6.568-20.209,13.161-40.412,19.746-60.617
		c8.851-27.158,18.257-54.158,28.304-80.896c10.043-26.727,20.844-53.185,31.946-79.493c6.455-15.295,13.958-30.182,23.254-44.027
		c4.082-6.079,8.268-12.796,15.207-15.448c18.951-7.24,38.175-13.792,57.417-20.24c23-7.706,46.117-15.06,69.209-22.491
		c18.057-5.811,35.965-12.198,54.271-17.091c27.306-7.3,54.302-15.715,81.871-22.1c18.149-4.204,36.149-9.04,54.44-12.686
		c12.721-2.536,25.436-5.037,38.203-7.352c29.561-5.359,59.305-8.858,89.262-9.992c45.685-1.729,90.337,4.957,133.664,19.496
		c17.954,6.024,35.651,12.995,52.307,22.149c21.233,11.67,21.142,11.838,43.418,2.526
		C3903.07,464.363,3903.555,462.917,3899.446,458.401z"/>
	<path fill-rule="evenodd" clip-rule="evenodd" fill="#FFFFFF" d="M2100.129,1566.134c-0.007,0.003-0.014,0.007-0.021,0.01
		c-0.009,0.009-0.02,0.016-0.03,0.024L2100.129,1566.134z"/>
	<path fill-rule="evenodd" clip-rule="evenodd" fill="#57A5AF" d="M1978.215,1227.787c-3.519,15.873-8.386,31.43-10.788,47.573
		c-0.877,5.892-2.872,11.609-4.183,17.446c-5.016,22.328-11.074,44.501-14.562,67.068c-2.541,16.438-6.875,32.447-9.734,48.792
		c-3.482,19.908-8.124,39.726-11.748,59.646c-5.113,28.108-10.498,56.179-15.716,84.261c-3.395,18.271-6.236,36.686-10.37,54.876
		c-4.802,21.13-5.81,42.743-2.269,64.425c1.602,9.807,2.136,19.678,5.209,29.343c2.745,8.631,7.259,16.378,10.277,24.807
		c-5.159-2.648-6.931-7.753-8.655-12.643c-4.968-14.086-9.874-28.148-10.077-43.446c-0.092-6.927-1.309-13.854-1.528-20.856
		c-0.493-15.768,2.309-31.066,5.197-46.44c3.98-21.185,8.526-42.278,11.143-63.705c0.2-1.641,0.752-3.237,1.123-4.857
		c4.953-21.685,8.639-43.604,12.464-65.507c3.138-17.969,7.127-35.789,10.727-53.679c3.798-18.876,7.171-37.851,11.495-56.605
		c3.729-16.176,6.931-32.471,10.484-48.675c3.192-14.558,6.481-29.131,9.466-43.752c1.858-9.099,4.549-18.01,6.216-27.192
		C1973.079,1234.838,1973.187,1229.717,1978.215,1227.787z"/>
	<path fill-rule="evenodd" clip-rule="evenodd" fill="#4498A5" d="M2100.129,1566.134c-3.718,4.938-9.636,6.735-14.475,10.068
		c-4.733,3.26-8.489,6.659-9.846,12.902c-1.08,4.971-3.591,9.961-7.646,13.638c-1.544,1.399-3.429,2.208-5.249,0.466
		c-1.408-1.348-0.941-3.049-0.236-4.583c1.434-3.115,5.117-5.323,3.95-9.465c-2.597-1.677-4.272,1.566-6.569,0.966
		c0.719-1.074,1.192-2.683,2.193-3.141c11.469-5.253,21.35-13.141,32.291-19.254
		C2096.28,1566.76,2097.975,1565.647,2100.129,1566.134z"/>
	<path fill-rule="evenodd" clip-rule="evenodd" fill="#4498A5" d="M2060.104,1590.096c-7.005,6.498-15.373,10.703-24.099,14.307
		C2042.36,1596.811,2050.937,1592.956,2060.104,1590.096z"/>
	<path fill-rule="evenodd" clip-rule="evenodd" fill="#4498A5" d="M2106.553,1562.089c-1.72,2.055-3.312,4.313-6.475,4.079
		C2101.13,1563.052,2103.225,1561.592,2106.553,1562.089z"/>
	<path fill-rule="evenodd" clip-rule="evenodd" fill="#175D73" d="M745.153,386.021c-21.909,2.277-44.183-1.959-65.702-9.313
		c-41.387-14.143-74.374-39.17-96.827-77.364c-25.853-43.978-32.48-91.29-22.816-140.627c9.158-46.754,32.33-85.341,72.194-113.021
		c30.947-21.489,65.165-32.41,102.678-34.003c26.903-1.142,53.309,1.306,78.795,10.201c28.366,9.9,53.38,25.328,73.902,47.502
		c14.81,16.002,26.585,34.156,34.391,54.45c14.039,36.5,17.576,73.991,10.623,112.81c-7.058,39.406-24.623,72.853-53.136,100.443
		c-20.873,20.198-45.8,33.629-73.842,41.79C785.959,384.55,766.404,387.25,745.153,386.021z M651.922,252.893
		c8.938,24.123,23.802,42.538,47.58,53.598c17.838,8.297,36.538,9.646,55.625,8.852c24.949-1.038,46.935-9.537,64.152-28.048
		c13.63-14.654,21.593-32.149,25.417-51.973c6.731-34.89,5.636-68.967-9.592-101.451c-11.47-24.467-31.072-40.608-57.15-47.604
		c-18.829-5.051-38.128-5.399-57.459-1.365c-33.467,6.983-55.564,27.073-67.838,58.371c-7,17.849-10.518,36.433-8.569,55.619
		C642.493,217.579,645.455,235.438,651.922,252.893z"/>
	<path fill-rule="evenodd" clip-rule="evenodd" fill="#175D73" d="M1055.542,15.45c15.662,0,31.329,0.262,46.983-0.067
		c19.108-0.403,38.052,1.396,56.532,5.75c27.784,6.544,52.573,19.041,70.418,42.233c13.486,17.528,21.194,37.606,21.871,59.833
		c0.505,16.595,1.088,33.193-3.504,49.607c-11.166,39.91-37.277,64.444-75.903,77.74c-22.869,7.872-46.239,9.02-69.908,9.244
		c-10.995,0.104-21.994-0.122-32.988,0.038c-7.46,0.108-8.647,1.514-8.337,8.953c1.458,34.971,0.276,69.957,0.636,104.935
		c0.086,8.34-1.041,9.481-9.008,9.524c-22.659,0.123-45.318,0.111-67.977,0.014c-8.081-0.035-8.907-0.992-9.884-9.107
		c-9.178-76.216-12.319-152.709-9.803-229.405c1.146-34.953,4.05-69.811,8.682-104.504c0.704-5.271,0.582-10.649,1.139-15.946
		c0.836-7.951,1.802-8.818,10.076-8.842c23.659-0.07,47.318-0.025,70.977-0.025C1055.542,15.433,1055.542,15.441,1055.542,15.45z
		 M1095.542,194.092c8.641,0,17.314,0.478,25.915-0.104c15.974-1.08,28.331-8.794,36.78-22.354
		c9.525-15.286,9.268-32.218,7.245-49.218c-0.656-5.51-2.031-10.855-5.081-15.958c-7.428-12.426-17.909-20.161-31.773-23.758
		c-20.658-5.359-41.696-2.336-62.566-2.921c-3.884-0.109-5.51,2.692-6.523,6.308c-9.46,33.757-10.014,67.433-0.417,101.336
		c1.627,5.748,4.173,7.669,9.496,7.63c8.975-0.066,17.95-0.018,26.926-0.018C1095.543,194.721,1095.542,194.407,1095.542,194.092z"
		/>
	<path fill-rule="evenodd" clip-rule="evenodd" fill="#FFFFFF" d="M2138.225,950.657c9.094-17.801,19.809-34.601,30.969-51.122
		c2.302-3.407,2.77-6.573,2.084-10.3c-2.661-14.468-14.107-20.935-25.248-27.606c-4.554-2.727-8.597-1.89-12.659,1.798
		c-5.317,4.829-5.557,4.565-10.624-0.701c-6.451-6.704-11.147-6.195-16.184,2.042c-18.375,30.047-34.816,61.034-47.579,93.976
		c-9.28,23.954-16.921,48.181-19.395,73.874c-1.741,18.086,6.191,29.908,23.735,34.805c10.311,2.878,20.785,4.62,31.52,4.568
		c2.994,0.004,5.995,0.119,8.985-0.019c7.843-0.36,8.652-1.318,7.396-9.042c-1.117-6.868-2.565-13.554-1.939-20.73
		C2112.141,1009.488,2123.454,979.572,2138.225,950.657z"/>
	<path fill-rule="evenodd" clip-rule="evenodd" fill="#175D73" d="M3139.962,2238.174c-25.147,1.686-48.716-5.34-70.318-19.238
		c-14.491-9.322-26.255-21.535-34.436-36.664c-22.176-41.013-25.185-84.029-12.587-128.574
		c8.104-28.656,23.701-51.735,48.938-68.043c16.274-10.518,34.125-16.136,53.286-17.993c26.653-2.584,52.568-0.124,76.776,12.216
		c22.626,11.534,39.6,28.809,50.372,51.908c16.231,34.804,18.14,71.084,11.187,108.347c-5.031,26.968-16.664,50.33-37.057,68.87
		c-20.199,18.365-44.208,27.867-71.453,29.141C3150.016,2238.36,3145.342,2238.174,3139.962,2238.174z M3072.988,2157.744
		c10.462,26.118,30.288,41.537,58.971,43.993c14.747,1.263,29.375,0.134,43.079-5.844c21.256-9.271,32.14-27.431,38.101-48.485
		c5.754-20.322,6.973-41.414,4.604-62.427c-1.898-16.841-4.613-33.604-13.903-48.479c-6.834-10.942-15.224-20.336-27.033-25.656
		c-13.226-5.957-27.326-8.38-41.918-7.175c-29.592,2.443-50.982,17.04-61.892,44.604c-6.856,17.326-10.237,35.805-9.076,54.842
		C3062.674,2121.955,3066.068,2140.468,3072.988,2157.744z"/>
	<path fill-rule="evenodd" clip-rule="evenodd" fill="#175D73" d="M455.905,1405.562c1.189-2.369,2.243-4.819,3.599-7.089
		c2.27-3.803,5.216-3.87,7.537-0.299c0.357,0.55,0.71,1.173,0.817,1.804c0.658,3.894,1.986,7.191,6.688,7.265
		c4.827,0.074,5.706-4.295,7.24-7.29c12.284-23.98,25.832-47.179,41.923-68.822c4.966-6.68,10.34-13.049,17.017-18.164
		c1.056-0.808,1.939-2.354,3.046-2.505c14.625-1.995,15.774-14.397,18.682-24.825c9.301-33.357,25.583-63.244,44.568-91.84
		c15.296-23.039,32.479-44.618,51.368-64.804c3.327-3.555,4.708-6.041,0.104-9.554c-4.321-3.298-2.89-6.79,0.563-10.017
		c6.567-6.137,13.211-12.203,19.543-18.576c6.855-6.899,12.457-14.751,15.881-23.956c1.295-3.482,3.009-6.094,7.256-4.739
		c4.171,1.331,3.992,4.316,3.335,8.025c-6.022,34.055-11.975,68.124-17.721,102.227c-4.528,26.875-9.731,53.642-14.191,80.508
		c-4.519,27.221-10.727,54.15-14.097,81.567c-0.443,3.604-1.913,7.068-2.61,10.656c-6.211,31.979-12.375,63.968-18.508,95.962
		c-1.715,8.948-2.38,9.782-11.28,10.924c-28.841,3.701-56.548,11.872-84.102,20.821c-30.049,9.76-59.527,20.976-88.46,33.625
		c-7.25,3.17-14.379,2.162-21.52,0.428c-4.968-1.206-5.767-3.387-3.283-8.017c7.697-14.348,15.494-28.643,23.321-42.919
		c2.23-4.067,4.697-8.006,7.056-12.003c4.318-7.279,2.586-16.03,5.875-23.698c1.743-4.064-1.473-6.946-5.817-7.19
		C453.836,1412.735,454.479,1409.436,455.905,1405.562z"/>
	<path fill-rule="evenodd" clip-rule="evenodd" fill="#185E75" d="M278.621,1555.666c0.279-1.047,0.515-3.103,1.348-4.878
		c5.928-12.638,10.189-25.923,15.29-38.881c1.212-3.081,2.884-5.978,4.238-9.006c1.124-2.515,3.012-3.552,5.594-2.874
		c2.833,0.743,5.236,2.7,4.277,5.688c-1.935,6.022-1.364,12.488-4.16,18.39c-4.958,10.468-9.337,21.209-14.017,31.81
		c-0.666,1.507-1.608,2.902-2.507,4.295c-1.731,2.68-3.807,4.837-7.342,3.146C278.48,1561.988,278.084,1559.403,278.621,1555.666z"
		/>
	<path fill-rule="evenodd" clip-rule="evenodd" fill="#43909E" d="M455.905,1405.562c0.316,3.301,0.484,5.952,5.175,6.688
		c7.123,1.117,8.199,3.456,5.523,10.037c-1.647,4.052-2.497,8.059-2.577,12.374c-0.068,3.67-0.795,7.184-4.349,9.295
		c-0.125-6.685,2.068-12.987,3.216-19.462c0.344-1.94,0.898-3.859,1.063-5.813c0.159-1.883-1.063-3.1-2.805-3.52
		c-2.167-0.522-4.07,0.174-4.67,2.432c-0.672,2.53-0.671,5.243-1.38,7.76c-1.618,5.741-5.032,7.896-9.194,6.109
		c-3.714-1.594-4.403-5.098-1.792-10.129C447.174,1415.439,452.029,1410.86,455.905,1405.562z"/>
	<path fill-rule="evenodd" clip-rule="evenodd" fill="#196076" d="M1394.542,789c-0.058-3.083-1.757-4.946-4.541-5.864
		c-3.452-1.138-6.505-0.092-9.434,1.821c-8.904,5.817-17.951,11.422-26.761,17.378c-29.472,19.927-58.654,40.25-85.642,63.535
		c-10.114,8.726-19.382,18.257-27.889,28.542c-1.307,1.581-2.5,3.341-1.254,5.395c1.463,2.411,3.909,2.385,6.201,1.615
		c2.868-0.964,5.179-2.88,7.468-4.871c20.593-17.914,41.084-35.967,62.646-52.712c23.848-18.521,46.684-38.668,75.514-49.624
		C1393.401,793.247,1394.572,791.629,1394.542,789z"/>
	<path fill-rule="evenodd" clip-rule="evenodd" fill="#1B6177" d="M1939.341,347.527c-0.133-1.896,1.031-4.081,2.6-6.394
		c11.734-17.291,23.16-34.774,33.488-52.969c6.234-10.983,12.08-22.115,15.844-34.187c1.293-4.15,3.303-6.493,7.753-5.728
		c3.903,0.671,5.797,4.425,3.896,9.621c-3.067,8.383-6.688,16.581-10.387,24.714c-9.193,20.218-18.737,40.247-32.66,57.813
		c-3.753,4.735-8.094,8.759-12.959,12.287c-1.725,1.25-3.533,1.997-5.525,0.977C1939.265,352.572,1939.469,350.402,1939.341,347.527
		z"/>
	<path fill-rule="evenodd" clip-rule="evenodd" fill="#2A798B" d="M1434.573,762.312c0.926,0,0.594,0.009,0.261-0.001
		c-3.846-0.119-8.371,1.217-10-4.082c-1.266-4.118,1.151-7.858,7.241-10.356c18.136-7.441,35.618-16.159,52.54-26.037
		c9.215-5.379,18.362-10.773,23.729-20.606c1.355-2.482,3.643-3.8,6.573-3.798c3.326,0.002,6.651-0.026,9.977-0.022
		c3.211,0.004,6.048,0.701,6.77,4.421c0.658,3.392-0.949,5.879-3.755,7.473c-2.883,1.638-5.879,3.135-8.957,4.364
		c-18.554,7.404-36.052,16.856-53.095,27.194c-7.16,4.343-13.492,9.525-18.011,16.812
		C1444.974,762.303,1444.68,762.121,1434.573,762.312z"/>
	<path fill-rule="evenodd" clip-rule="evenodd" fill="#307A8C" d="M1622.316,1419.227c0-0.66,0.018-1.32-0.003-1.98
		c-0.385-12.563,2.427-14.896,15.192-12.75c4.076,0.686,5.9,2.386,4.149,6.748c-2.682,6.685-6.137,13.074-6.442,20.616
		c-0.138,3.382-3.241,4.673-6.583,4.619c-3.551-0.057-5.633-1.843-5.789-5.375c-0.174-3.952-0.04-7.917-0.04-11.877
		C1622.64,1419.228,1622.478,1419.227,1622.316,1419.227z"/>
	<path fill-rule="evenodd" clip-rule="evenodd" fill="#226F83" d="M1224.053,1158.172c-3.624,0.14-5.753-3.954-3.729-8.26
		c2.244-4.774,4.925-9.381,7.79-13.819c10.945-16.963,21.178-34.416,33.723-50.297c3.485-4.413,7.443-8.456,11.257-12.602
		c1.398-1.52,3.288-2.779,5.251-1.468c2.357,1.574,1.984,4.179,0.821,6.257c-1.446,2.584-3.261,5-5.155,7.29
		c-12.673,15.329-24.521,31.246-35.075,48.125c-4.043,6.465-7.805,13.054-10.546,20.162
		C1227.515,1155.826,1226.993,1158.021,1224.053,1158.172z"/>
	<path fill-rule="evenodd" clip-rule="evenodd" fill="#328393" d="M1169.487,1261.083c-2.846-0.634-4.002-2.447-4-5.042
		c0.002-3.064,1.053-5.898,2.647-8.419c6.019-9.52,10.795-19.637,14.89-30.101c0.477-1.218,0.93-2.496,1.674-3.548
		c1.215-1.719,2.931-2.683,5.122-2.046c2.416,0.702,2.597,2.756,2.544,4.767c-0.053,2.017-1.008,3.716-1.979,5.498
		c-5.967,10.951-12.975,21.422-15.827,33.848C1173.947,1258.704,1172.589,1260.971,1169.487,1261.083z"/>
	<path fill-rule="evenodd" clip-rule="evenodd" fill="#4993A0" d="M1004.559,1430.58c-1.061,6.855-1.978,13.737-3.245,20.555
		c-0.613,3.294-1.868,7.057-6.254,5.979c-3.413-0.838-3.978-4.211-3.272-7.36c1.669-7.453,2.596-14.978,2.87-22.607
		c0.132-3.665,1.653-6.798,5.828-6.428c3.879,0.344,4.017,3.75,3.953,6.845c-0.021,0.991-0.106,1.982-0.163,2.974
		C1004.37,1430.551,1004.464,1430.565,1004.559,1430.58z"/>
	<path fill-rule="evenodd" clip-rule="evenodd" fill="#3E8695" d="M1070.091,1467.994c0.539-5.939,0.525-9.524,2.767-12.802
		c2.799-4.093,5.411-8.348,6.55-13.336c0.805-3.524,3.222-5.136,6.69-3.745c3.199,1.282,2.732,4.238,2.06,6.846
		c-0.405,1.569-1.315,3.018-2.071,4.483c-2.863,5.556-6.394,10.752-6.313,17.512c0.042,3.565-2.247,6.764-6.298,6.038
		C1069.7,1472.315,1070.041,1468.707,1070.091,1467.994z"/>
	<path fill-rule="evenodd" clip-rule="evenodd" fill="#308393" d="M1197.447,1205.894c-2.875-0.254-4.71-1.587-4.868-4.255
		c-0.093-1.562,0.25-3.405,1.055-4.72c3.112-5.084,6.187-10.121,7.996-15.894c0.888-2.831,3.276-4.237,6.319-2.892
		c2.648,1.17,3.003,3.677,1.964,5.895c-3.227,6.887-6.714,13.654-10.226,20.403
		C1199.305,1205.166,1198.111,1205.479,1197.447,1205.894z"/>
	<path fill-rule="evenodd" clip-rule="evenodd" fill="#1B6278" d="M2594.383,789.587c0.33-4.845-4.388-8.375-9.755-6.512
		c-4.011,1.392-7.688,3.895-11.316,6.21c-22.705,14.49-44.869,29.795-66.573,45.724c-19.039,13.975-37.814,28.368-54.27,45.461
		c-4.151,4.313-8.007,8.912-11.977,13.399c-1.604,1.813-3.122,3.958-1.389,6.221c1.92,2.508,4.8,2.203,7.232,0.75
		c2.549-1.522,4.945-3.366,7.197-5.315c22.65-19.606,45.26-39.26,69.021-57.532c21.589-16.602,42.472-34.317,68.549-43.916
		C2593.202,793.307,2594.318,791.834,2594.383,789.587z"/>
	<path fill-rule="evenodd" clip-rule="evenodd" fill="#1E6F83" d="M2445.784,1536.706c-0.251,2.822-1.916,4.854-3.691,6.89
		c-12.243,14.034-24.56,28.006-36.638,42.181c-24.779,29.083-49.115,58.519-69.871,90.704c-4.326,6.708-8.229,13.662-11.28,21.045
		c-1.27,3.071-2.876,5.613-6.56,4.359c-4.078-1.39-3.977-4.97-3.165-8.348c1.034-4.305,3.946-7.672,6.435-11.161
		c16.794-23.543,34.412-46.466,52.281-69.201c18.279-23.259,36.426-46.622,54.743-69.853c2.865-3.634,5.989-7.226,9.604-10.058
		C2441.111,1530.547,2445.755,1532.851,2445.784,1536.706z"/>
	<path fill-rule="evenodd" clip-rule="evenodd" fill="#1E6379" d="M3143.229,354.168c-2.412,0.106-3.759-1.225-4.157-3.423
		c-0.696-3.842,0.837-6.872,3.009-10.103c11.664-17.349,23.012-34.908,33.472-53.026c6.154-10.661,11.473-21.69,15.454-33.344
		c1.908-5.585,4.342-7.347,8.29-5.828c3.703,1.424,5.239,5.087,3.291,10.139c-3.576,9.272-7.173,18.588-11.594,27.472
		c-8.413,16.91-16.254,34.176-27.607,49.462c-4.573,6.156-9.347,12.098-15.811,16.445
		C3146.199,352.889,3145.01,354.087,3143.229,354.168z"/>
	<path fill-rule="evenodd" clip-rule="evenodd" fill="#1F687D" d="M2419.515,1734.553c-2.776,5.981-5.478,12.787-8.97,19.159
		c-17.189,31.359-39.496,58.918-63.765,84.985c-0.68,0.73-1.361,1.464-2.095,2.137c-2.205,2.023-4.944,4.821-7.618,2.225
		c-3.043-2.954,0.702-5.212,2.468-7.334c20.405-24.518,40.074-49.577,56.602-76.94c4.629-7.665,9.153-15.405,11.525-24.169
		c0.429-1.583,0.992-3.199,1.85-4.579c1.35-2.172,3.445-3.075,6.009-2.368C2418.618,1728.522,2419.518,1730.854,2419.515,1734.553z"
		/>
	<path fill-rule="evenodd" clip-rule="evenodd" fill="#2B7688" d="M2637.421,762.331c-2.653,0-3.652-0.015-4.65,0.002
		c-3.413,0.058-6.989,0.091-8.149-4.01c-1.329-4.7,1.256-7.634,5.255-9.493c10.827-5.036,21.855-9.671,32.497-15.072
		c11.232-5.701,22.57-11.272,32.774-18.85c4.856-3.607,9.265-7.406,12.505-12.622c2.871-4.62,17.169-6.912,21.725-3.821
		c3.035,2.059,3.325,6.871-0.051,9.434c-3.128,2.375-6.8,4.189-10.464,5.68c-19.438,7.911-37.933,17.598-55.66,28.812
		c-5.416,3.426-11.097,7.064-13.815,12.671C2646.282,761.462,2641.877,762.843,2637.421,762.331z"/>
	<path fill-rule="evenodd" clip-rule="evenodd" fill="#1F6C81" d="M2451.249,1223.458c0.226,2.704-1.756,4.246-3.118,6.056
		c-7.967,10.587-16.182,20.993-23.943,31.729c-12.603,17.429-25.645,34.643-32.193,55.599c-0.85,2.719-2.229,5.054-5.676,4.003
		c-3.15-0.962-3.786-3.512-3.213-6.379c0.32-1.601,0.894-3.219,1.68-4.649c15.338-27.908,31.052-55.586,51.521-80.189
		c2.741-3.294,5.474-6.765,9.561-8.57C2448.431,1219.923,2450.381,1220.66,2451.249,1223.458z"/>
	<path fill-rule="evenodd" clip-rule="evenodd" fill="#267386" d="M2008.54,1227.76c-0.344,3.119-1.095,6.295-2.286,9.442
		c-9.001,23.795-18.103,47.569-22.46,72.797c-0.576,3.335-2.05,5.9-5.75,5.401c-3.894-0.525-4.339-3.822-3.833-6.892
		c1.24-7.515,4.172-14.604,6.189-21.921c5.447-19.755,12.103-39.178,18.269-58.734c0.199-0.631,0.252-1.305,0.425-1.944
		c0.783-2.884,2.429-4.796,5.664-4.305C2008.167,1222.121,2008.642,1224.713,2008.54,1227.76z"/>
	<path fill-rule="evenodd" clip-rule="evenodd" fill="#367E8F" d="M2822.16,1419.671c0-0.663,0.016-1.326-0.002-1.989
		c-0.359-13.086,1.99-15.156,14.824-13.285c4.033,0.588,6.039,2.038,4.439,6.593c-2.289,6.52-5.624,12.667-6.388,19.761
		c-0.386,3.593-3.135,5.82-7.021,5.7c-4.358-0.135-5.389-3.232-5.504-6.833c-0.107-3.312-0.023-6.63-0.023-9.945
		C2822.378,1419.672,2822.27,1419.672,2822.16,1419.671z"/>
	<path fill-rule="evenodd" clip-rule="evenodd" fill="#2C7A8C" d="M2285.935,1745.56c-0.351,2.693-1.524,5.462-3.249,7.868
		c-6.543,9.127-12.866,18.32-15.984,29.337c-1.005,3.549-3.485,5.967-7.447,4.149c-3.654-1.677-3.895-5.011-2.706-8.486
		c0.315-0.925,0.788-1.853,1.395-2.614c7.64-9.589,14.176-19.819,18.779-31.245c1.035-2.567,3.049-4.625,6.114-3.937
		C2284.909,1741.099,2285.863,1743.039,2285.935,1745.56z"/>
	<path fill-rule="evenodd" clip-rule="evenodd" fill="#368191" d="M2331.293,1810.94c-1.773-0.198-3.861-4.045-2.25-8.123
		c3.023-7.653,8.249-14.257,10.669-22.252c0.618-2.044,2.94-2.647,5.026-2.121c2.161,0.545,3.096,2.292,3.296,4.435
		c0.19,2.029-0.22,3.938-1.231,5.709c-3.42,5.991-7.115,11.815-8.619,18.738C2337.694,1809.58,2335.961,1811.416,2331.293,1810.94z"
		/>
	<path fill-rule="evenodd" clip-rule="evenodd" fill="#26778A" d="M2071.834,981.499c-3.276-0.191-5.225-4.255-3.708-8.774
		c1.792-5.337,3.917-10.574,6.141-15.75c8.095-18.835,16.284-37.629,24.455-56.431c1.439-3.313,2.98-8.215,7.249-6.317
		c5.028,2.236,0.75,5.814-0.526,8.993c-8.616,21.458-18.982,42.22-25.672,64.449c-1.144,3.802-2.674,7.493-4.144,11.188
		C2074.984,980.478,2073.739,981.54,2071.834,981.499z"/>
</g>
</svg>
